<?xml version="1.0" encoding="iso-8859-1"?>
<!-- Generator: Adobe Illustrator 19.0.0, SVG Export Plug-In . SVG Version: 6.00 Build 0)  -->
<svg version="1.1" id="Layer_1" xmlns="http://www.w3.org/2000/svg" xmlns:xlink="http://www.w3.org/1999/xlink" x="0px" y="0px"
	 viewBox="0 0 512 512" style="enable-background:new 0 0 512 512;" xml:space="preserve">
<path style="fill:#FF4181;" d="M297.165,324.361c0,59.325,48.093,107.417,107.417,107.417S512,383.686,512,324.361
	C512,256,404.583,80.223,404.583,80.223S297.165,256,297.165,324.361z"/>
<path style="fill:#FFFFFF;" d="M404.583,389.313c-6.701,0-12.133-5.432-12.133-12.133s5.432-12.133,12.133-12.133
	c22.436,0,40.688-18.252,40.688-40.687c0-6.701,5.432-12.133,12.133-12.133s12.133,5.432,12.133,12.133
	C469.536,360.176,440.398,389.313,404.583,389.313z"/>
<path style="fill:#FFCE47;" d="M148.583,324.361c0,59.325,48.093,107.417,107.417,107.417s107.417-48.093,107.417-107.417
	C363.417,256,256,80.223,256,80.223S148.583,256,148.583,324.361z"/>
<path style="fill:#FFFFFF;" d="M256,389.313c-6.701,0-12.133-5.432-12.133-12.133s5.432-12.133,12.133-12.133
	c22.436,0,40.688-18.252,40.688-40.687c0-6.701,5.432-12.133,12.133-12.133c6.701,0,12.133,5.432,12.133,12.133
	C320.952,360.176,291.815,389.313,256,389.313z"/>
<path style="fill:#4EB9FF;" d="M0,324.361c0,59.325,48.093,107.417,107.417,107.417s107.417-48.093,107.417-107.417
	c0-68.36-107.417-244.138-107.417-244.138S0,256,0,324.361z"/>
<path style="fill:#FFFFFF;" d="M107.417,389.313c-6.701,0-12.133-5.432-12.133-12.133s5.432-12.133,12.133-12.133
	c22.436,0,40.688-18.252,40.688-40.687c0-6.701,5.432-12.133,12.133-12.133c6.701,0,12.133,5.432,12.133,12.133
	C172.371,360.176,143.233,389.313,107.417,389.313z"/>
<g>
</g>
<g>
</g>
<g>
</g>
<g>
</g>
<g>
</g>
<g>
</g>
<g>
</g>
<g>
</g>
<g>
</g>
<g>
</g>
<g>
</g>
<g>
</g>
<g>
</g>
<g>
</g>
<g>
</g>
</svg>
