<?xml version="1.0" encoding="iso-8859-1"?>
<!-- Generator: Adobe Illustrator 19.1.0, SVG Export Plug-In . SVG Version: 6.00 Build 0)  -->
<svg xmlns="http://www.w3.org/2000/svg" xmlns:xlink="http://www.w3.org/1999/xlink" version="1.1" id="Capa_1" x="0px" y="0px" viewBox="0 0 539.303 539.303" style="enable-background:new 0 0 539.303 539.303;" xml:space="preserve" width="512px" height="512px">
<g>
	<g>
		<path d="M41.485,311.138c-11.436,0-20.742,9.306-20.742,20.742s9.306,20.742,20.742,20.742s20.742-9.306,20.742-20.742    C62.227,320.444,52.921,311.138,41.485,311.138z M41.485,338.793c-3.816,0-6.914-3.098-6.914-6.914s3.097-6.914,6.914-6.914    c3.816,0,6.914,3.098,6.914,6.914S45.301,338.793,41.485,338.793z" fill="#FFFFFF"/>
		<path d="M421.312,384.731c-1.024-2.683-3.596-4.453-6.465-4.453H138.282c-2.668,0-5.095,1.535-6.25,3.941L62.891,529.416    c-1.016,2.143-0.864,4.66,0.401,6.665c1.272,2.005,3.477,3.222,5.849,3.222h401.02c2.275,0,4.411-1.112,5.697-2.986    s1.576-4.259,0.767-6.389L421.312,384.731z M80.093,525.475l62.559-131.369h267.432l50.044,131.369H80.093z" fill="#FFFFFF"/>
		<path d="M483.99,145.198h-13.828h-0.001v-0.001l-49.989,0.007L414.841,6.652c-0.138-3.712-3.194-6.651-6.907-6.651H145.197    c-3.713,0-6.769,2.939-6.907,6.651l-5.331,138.553l-47.977-0.007H55.313C19,145.198,0,226.217,0,269.652v159.025    c0,26.682,21.717,48.399,48.399,48.399H82.97c3.823,0,6.914-3.09,6.914-6.914V359.536h366.449v110.626    c0,3.823,3.09,6.914,6.914,6.914h27.657c26.681,0,48.398-21.717,48.399-48.399V269.652    C539.303,226.218,520.303,145.198,483.99,145.198z M146.517,152.381v-0.007l5.331-138.545h249.434l5.331,138.552l1.051,27.387    H145.466L146.517,152.381z M133.298,191.474c1.307,1.362,3.111,2.123,4.985,2.123h276.565c1.874,0,3.685-0.768,4.985-2.124    c1.3-1.355,1.998-3.18,1.922-5.054l-1.051-27.387l47.977-0.007c8.66,4.592,22.051,28.009,29.899,48.041    c1.452,3.706,0.671,5.607-0.173,6.845c-2.856,4.19-11.9,7.343-21.047,7.343H77.785c-9.141,0-18.191-3.153-21.047-7.343    c-0.851-1.231-1.632-3.139-0.18-6.845c7.86-20.036,21.249-43.451,29.897-48.04l45.972,0.007l-1.051,27.387    C131.3,188.294,131.991,190.112,133.298,191.474z M456.333,345.708H89.884h-0.001v-27.657c0-15.253,12.404-27.657,27.657-27.657    h311.136c15.253,0,27.657,12.404,27.657,27.657V345.708z M525.474,428.677c0,19.063-15.509,34.571-34.571,34.571h-20.741V318.051    c0-22.879-18.606-41.485-41.485-41.485H117.541c-22.879,0-41.485,18.606-41.485,41.485v145.198H48.399    c-19.063,0-34.571-15.509-34.571-34.571V269.653c0-47.279,20.514-110.626,41.485-110.626h11.574    c-12.293,15.792-21.793,39.403-23.19,42.985c-3.568,9.085-1.085,15.729,1.625,19.698c6.728,9.867,21.69,13.372,32.462,13.372    h399.574c10.772,0,25.742-3.506,32.469-13.372c2.704-3.976,5.186-10.614,1.618-19.685c-1.355-3.484-10.35-25.852-22.118-41.602    c18.71,9.617,36.147,66.977,36.147,109.229V428.677z" fill="#FFFFFF"/>
	</g>
</g>
<g>
</g>
<g>
</g>
<g>
</g>
<g>
</g>
<g>
</g>
<g>
</g>
<g>
</g>
<g>
</g>
<g>
</g>
<g>
</g>
<g>
</g>
<g>
</g>
<g>
</g>
<g>
</g>
<g>
</g>
</svg>
