<?xml version="1.0" encoding="iso-8859-1"?>
<!-- Generator: Adobe Illustrator 17.1.0, SVG Export Plug-In . SVG Version: 6.00 Build 0)  -->
<!DOCTYPE svg PUBLIC "-//W3C//DTD SVG 1.1//EN" "http://www.w3.org/Graphics/SVG/1.1/DTD/svg11.dtd">
<svg xmlns="http://www.w3.org/2000/svg" xmlns:xlink="http://www.w3.org/1999/xlink" version="1.1" id="Capa_1" x="0px" y="0px" viewBox="0 0 442 442" style="enable-background:new 0 0 442 442;" xml:space="preserve" width="512px" height="512px">
<g>
	<path d="M343.465,330.879c-5.523,0-10-4.477-10-10s4.477-10,10-10c18.491,0,33.535-15.044,33.535-33.535c0-5.523,4.477-10,10-10   s10,4.477,10,10C397,306.864,372.984,330.879,343.465,330.879z" fill="#FFFFFF"/>
	<path d="M343.465,375.879c-13.297,0-26.203-2.606-38.357-7.748c-5.086-2.151-7.466-8.019-5.314-13.105   c2.151-5.086,8.017-7.466,13.105-5.314c9.676,4.092,19.96,6.167,30.566,6.167c43.304,0,78.535-35.23,78.535-78.535   c0-39.394-50.625-134.031-78.511-181.675c-8.458,14.488-22.08,38.452-35.566,64.835c-2.514,4.917-8.538,6.865-13.456,4.353   c-4.917-2.514-6.866-8.538-4.353-13.456c22.111-43.255,44.593-80.127,44.818-80.494c1.816-2.973,5.049-4.786,8.533-4.786   s6.716,1.813,8.533,4.786C355.673,76.92,442,218.859,442,277.344C442,331.677,397.797,375.879,343.465,375.879z" fill="#FFFFFF"/>
	<path d="M221,330.879c-5.523,0-10-4.477-10-10s4.477-10,10-10c18.491,0,33.535-15.044,33.535-33.535c0-5.523,4.477-10,10-10   s10,4.477,10,10C274.535,306.864,250.52,330.879,221,330.879z" fill="#FFFFFF"/>
	<path d="M221,375.879c-13.921,0-27.382-2.848-40.008-8.464c-5.046-2.245-7.317-8.155-5.073-13.201   c2.244-5.047,8.155-7.318,13.201-5.073c10.052,4.471,20.778,6.738,31.88,6.738c43.304,0,78.535-35.23,78.535-78.535   c0-39.394-50.625-134.031-78.511-181.675c-8.458,14.488-22.08,38.451-35.565,64.834c-2.514,4.918-8.538,6.867-13.456,4.353   c-4.918-2.514-6.867-8.538-4.353-13.456c22.11-43.255,44.593-80.127,44.817-80.495c1.816-2.973,5.049-4.786,8.533-4.786   s6.716,1.813,8.533,4.786c3.675,6.014,90.002,147.953,90.002,206.438C319.535,331.677,275.333,375.879,221,375.879z" fill="#FFFFFF"/>
	<path d="M98.535,375.879C44.203,375.879,0,331.677,0,277.344C0,218.859,86.327,76.92,90.002,70.906   c1.816-2.973,5.049-4.786,8.533-4.786s6.716,1.813,8.533,4.786c3.675,6.014,90.003,147.953,90.003,206.438   C197.071,331.677,152.868,375.879,98.535,375.879z M98.536,95.627C70.655,143.256,20,237.938,20,277.344   c0,43.305,35.231,78.535,78.535,78.535c43.305,0,78.536-35.23,78.536-78.535C177.071,237.922,126.418,143.252,98.536,95.627z" fill="#FFFFFF"/>
	<path d="M98.535,330.879c-5.523,0-10-4.477-10-10s4.477-10,10-10c18.492,0,33.536-15.044,33.536-33.535c0-5.523,4.477-10,10-10   s10,4.477,10,10C152.071,306.864,128.055,330.879,98.535,330.879z" fill="#FFFFFF"/>
</g>
<g>
</g>
<g>
</g>
<g>
</g>
<g>
</g>
<g>
</g>
<g>
</g>
<g>
</g>
<g>
</g>
<g>
</g>
<g>
</g>
<g>
</g>
<g>
</g>
<g>
</g>
<g>
</g>
<g>
</g>
</svg>
