<?xml version="1.0" encoding="iso-8859-1"?>
<!-- Generator: Adobe Illustrator 19.0.0, SVG Export Plug-In . SVG Version: 6.00 Build 0)  -->
<svg xmlns="http://www.w3.org/2000/svg" xmlns:xlink="http://www.w3.org/1999/xlink" version="1.1" id="Capa_1" x="0px" y="0px" viewBox="0 0 512 512" style="enable-background:new 0 0 512 512;" xml:space="preserve" width="512px" height="512px">
<g>
	<g>
		<g>
			<circle cx="64" cy="277.333" r="21.333" fill="#FFFFFF"/>
			<path d="M394.667,320c-29.406,0-53.333,23.927-53.333,53.333s23.927,53.333,53.333,53.333S448,402.74,448,373.333     S424.073,320,394.667,320z M394.667,405.333c-17.646,0-32-14.354-32-32c0-17.646,14.354-32,32-32s32,14.354,32,32     C426.667,390.979,412.313,405.333,394.667,405.333z" 
			fill="#FFFFFF"/>
			<path d="M503.927,341.656l-20.438-5.115l10.833-18.063c2.521-4.198,1.854-9.573-1.604-13.031l-23.385-23.385V256     c0-23.531-19.135-42.667-42.667-42.667h-21.333v-74.667c0-5.896-4.771-10.667-10.667-10.667H384v-10.667     c0-2.833-1.125-5.542-3.125-7.542l-85.333-85.333c-2-2-4.708-3.125-7.542-3.125H128c-23.531,0-42.667,19.135-42.667,42.667v64     H74.667C68.771,128,64,132.771,64,138.667v74.667H42.667C19.135,213.333,0,232.469,0,256v106.667     c0,23.531,19.135,42.667,42.667,42.667h244.03l19.147,4.792l-10.833,18.063c-2.521,4.198-1.854,9.573,1.604,13.031l30.167,30.167     c3.448,3.448,8.813,4.104,13.031,1.604l18.063-10.833l5.115,20.438c1.188,4.74,5.448,8.073,10.344,8.073H416     c4.896,0,9.156-3.333,10.344-8.073l5.115-20.438l18.063,10.833c4.198,2.51,9.573,1.844,13.031-1.604l30.167-30.167     c3.458-3.458,4.125-8.833,1.604-13.031l-10.833-18.063l20.438-5.115c4.74-1.188,8.073-5.448,8.073-10.344V352     C512,347.104,508.667,342.844,503.927,341.656z M298.667,57.75l48.917,48.917H320c-11.76,0-21.333-9.573-21.333-21.333V57.75z      M106.667,64c0-11.76,9.573-21.333,21.333-21.333h149.333v42.667C277.333,108.865,296.469,128,320,128h42.667v85.333h-256V64z      M74.667,341.333C68.771,341.333,64,346.104,64,352c0,5.896,4.771,10.667,10.667,10.667h202.667V384H42.667     c-11.76,0-21.333-9.573-21.333-21.333V256c0-11.76,9.573-21.333,21.333-21.333h384c11.76,0,21.333,9.573,21.333,21.333v18.59     l-16.542,9.921l-5.115-20.438C425.156,259.333,420.896,256,416,256h-42.667c-4.896,0-9.156,3.333-10.344,8.073l-5.115,20.438     l-18.063-10.833c-4.208-2.521-9.583-1.854-13.031,1.604l-30.167,30.167c-3.458,3.458-4.125,8.833-1.604,13.031l10.833,18.063     l-19.147,4.792H74.667z M490.667,386.344l-18.323,4.583c-3.479,0.865-6.292,3.427-7.479,6.823     c-0.948,2.729-1.99,5.396-3.25,7.979c-1.573,3.25-1.406,7.063,0.448,10.156l9.688,16.135l-18.396,18.396l-16.135-9.688     c-3.094-1.854-6.927-2.031-10.156-0.448c-2.583,1.26-5.25,2.302-7.979,3.25c-3.396,1.188-5.958,4-6.823,7.479l-4.583,18.323     h-26.021l-4.583-18.323c-0.865-3.479-3.427-6.292-6.823-7.479c-2.729-0.948-5.396-1.99-7.979-3.25     c-3.24-1.573-7.063-1.406-10.156,0.448l-16.135,9.688l-18.396-18.396l9.688-16.135c1.854-3.094,2.021-6.906,0.448-10.156     c-1.26-2.583-2.302-5.25-3.25-7.979c-1.188-3.396-4-5.958-7.479-6.823l-18.323-4.583v-26.021l18.323-4.583     c3.479-0.865,6.292-3.427,7.479-6.823c0.948-2.729,1.99-5.396,3.25-7.979c1.573-3.25,1.406-7.063-0.448-10.156l-9.688-16.135     l18.396-18.396l16.135,9.688c3.094,1.854,6.896,2.01,10.156,0.448c2.583-1.26,5.25-2.302,7.979-3.25     c3.396-1.188,5.958-4,6.823-7.479l4.583-18.323h26.021l4.583,18.323c0.865,3.479,3.427,6.292,6.823,7.479     c2.729,0.948,5.396,1.99,7.979,3.25c3.24,1.573,7.063,1.406,10.156-0.448l16.135-9.688l18.396,18.396l-9.688,16.135     c-1.854,3.094-2.021,6.906-0.448,10.156c1.26,2.583,2.302,5.25,3.25,7.979c1.188,3.396,4,5.958,7.479,6.823l18.323,4.583V386.344     z" 
			fill="#FFFFFF"/>
		</g>
	</g>
</g>
</svg>
