<?xml version="1.0" encoding="utf-8"?>
<svg viewBox="0 0 640 300" xmlns="http://www.w3.org/2000/svg" xmlns:xlink="http://www.w3.org/1999/xlink" xmlns:bx="https://boxy-svg.com">
  <defs>
    <path id="path-0" d="M 93.973 73.838 C 117.913 59.757 136.281 55.342 153.954 54.726 C 164.194 54.423 170.321 53.872 176.853 55.831 C 183.311 57.731 187.088 59.356 190.469 62.738 C 192.336 66.177 193.967 66.182 196.282 67.764 C 202.006 71.163 205.574 71.481 200.761 74.739 L 199.892 75.305 C 198.259 76.441 197.232 76.379 195.986 76.379" style="fill: none;"/>
    <filter id="g">
      <feGaussianBlur stdDeviation=".5687"/>
    </filter>
    <linearGradient id="c" x2="0" y1="-45.558" y2="-32.015" gradientUnits="userSpaceOnUse">
      <stop stop-color="#d3d7cf" offset="0"/>
      <stop stop-color="#bbc1b5" offset="1"/>
    </linearGradient>
    <linearGradient id="a" x2="0" y1="-43.672" y2="-40.849" gradientUnits="userSpaceOnUse">
      <stop stop-color="#2e3436" stop-opacity=".8247" offset="0"/>
      <stop stop-color="#2e3436" stop-opacity="0" offset="1"/>
    </linearGradient>
    <linearGradient id="b">
      <stop stop-color="#555753" offset="0"/>
      <stop stop-color="#555753" stop-opacity=".2268" offset="1"/>
    </linearGradient>
    <linearGradient id="f" x1="640.47" x2="650.49" y1="272.35" y2="285.93" gradientUnits="userSpaceOnUse">
      <stop stop-color="#fff" offset="0"/>
      <stop stop-color="#fff" stop-opacity="0" offset="1"/>
    </linearGradient>
    <linearGradient id="d" x2="0" y1="-44.743" y2="-39.668" gradientUnits="userSpaceOnUse" xlink:href="#b"/>
    <linearGradient id="e" x2="0" y1="-44.743" y2="-39.668" gradientUnits="userSpaceOnUse" xlink:href="#b"/>
  </defs>
  <g transform="matrix(2.399629, 0, 0, 2.399631, 519.564575, 165.203094)" style="">
    <path d="M12 1.99902C17.5237 1.99902 22.0015 6.47687 22.0015 12.0006C22.0015 17.5243 17.5237 22.0021 12 22.0021C6.47626 22.0021 1.99841 17.5243 1.99841 12.0006C1.99841 6.47687 6.47626 1.99902 12 1.99902ZM14.9389 16.5003H9.06106C9.7131 18.9144 10.8465 20.5021 12 20.5021C13.1535 20.5021 14.2868 18.9144 14.9389 16.5003ZM7.50827 16.5009L4.78579 16.5007C5.74413 18.0338 7.17757 19.2394 8.87996 19.9114C8.35768 19.0915 7.92669 18.0653 7.60969 16.8959L7.50827 16.5009ZM19.2141 16.5007L16.4917 16.5009C16.1679 17.8346 15.7003 19.0004 15.1189 19.9114C16.7159 19.2814 18.0756 18.1824 19.0289 16.7843L19.2141 16.5007ZM7.09339 9.99992H3.73578L3.73102 10.0171C3.57894 10.6535 3.49841 11.3176 3.49841 12.0006C3.49841 13.0567 3.691 14.0679 4.04298 15.0009L7.21614 15.0005C7.07384 14.0514 6.99841 13.0432 6.99841 12.0006C6.99841 11.3166 7.03088 10.6474 7.09339 9.99992ZM15.3969 9.99999H8.60304C8.53501 10.6403 8.49841 11.31 8.49841 12.0006C8.49841 13.0601 8.58456 14.0704 8.73815 15.0007H15.2618C15.4154 14.0704 15.5015 13.0601 15.5015 12.0006C15.5015 11.31 15.4649 10.6403 15.3969 9.99999ZM20.2646 9.99909L16.9065 9.99994C16.9691 10.6474 17.0015 11.3166 17.0015 12.0006C17.0015 13.0432 16.9261 14.0514 16.7838 15.0005L19.9569 15.0009C20.3089 14.0679 20.5015 13.0567 20.5015 12.0006C20.5015 11.3112 20.4195 10.6409 20.2646 9.99909ZM8.88101 4.08973L8.85811 4.09844C6.81079 4.91315 5.15478 6.50046 4.25011 8.50033L7.29823 8.50069C7.61159 6.7479 8.15843 5.22198 8.88101 4.08973ZM12 3.49902L11.8843 3.50432C10.6189 3.62008 9.39639 5.62205 8.82868 8.50027H15.1713C14.6051 5.63011 13.3879 3.63131 12.1263 3.50534L12 3.49902ZM15.12 4.08979L15.2268 4.26388C15.896 5.37635 16.4041 6.83623 16.7017 8.50069L19.7498 8.50033C18.8852 6.58892 17.3342 5.05439 15.4112 4.21106L15.12 4.08979Z" fill="#212121"/>
  </g>
  <g transform="matrix(3.200774, 0, 0, 3.000465, 286.185059, 157.995193)" style="">
    <path d="M8.31031 10.248C8.5855 9.93845 8.55762 9.4644 8.24803 9.18921C7.93844 8.91402 7.46439 8.9419 7.1892 9.25149L5.1892 11.5015C4.93661 11.7857 4.93661 12.2139 5.1892 12.498L7.1892 14.748C7.46439 15.0576 7.93844 15.0855 8.24803 14.8103C8.55762 14.5351 8.5855 14.0611 8.31031 13.7515L7.41988 12.7498H16.5796L15.6892 13.7515C15.414 14.0611 15.4419 14.5351 15.7515 14.8103C16.0611 15.0855 16.5351 15.0576 16.8103 14.748L18.8103 12.498L18.8209 12.4859C18.9261 12.3624 18.992 12.2043 18.9991 12.0311C19 12.0109 19 11.9908 18.9992 11.9707C18.9923 11.7897 18.9213 11.6252 18.8082 11.4991L16.8103 9.25149C16.5351 8.9419 16.0611 8.91402 15.7515 9.18921C15.4419 9.4644 15.414 9.93845 15.6892 10.248L16.5796 11.2498H7.4199L8.31031 10.248Z" fill="#212121"/>
    <path d="M12.7544 4.00098L12.7538 4.00298L20.252 4.00341C21.2185 4.00341 22.002 4.78692 22.002 5.75341V18.2485C22.002 19.215 21.2185 19.9985 20.252 19.9985H11.2544L11.2538 19.996L3.75684 19.9961C2.79034 19.9961 2.00684 19.2126 2.00684 18.2461V5.75098C2.00684 4.78448 2.79034 4.00098 3.75684 4.00098H12.7544ZM20.252 5.50341H12.7544V10.4998H11.2544V5.50098H3.75684C3.61876 5.50098 3.50684 5.61291 3.50684 5.75098V18.2461C3.50684 18.3842 3.61876 18.4961 3.75684 18.4961H11.2544V13.4998L12.7544 13.4998V18.4985H20.252C20.3901 18.4985 20.502 18.3866 20.502 18.2485V5.75341C20.502 5.61534 20.3901 5.50341 20.252 5.50341Z" fill="#212121"/>
  </g>
  <text style="fill: rgb(51, 51, 51); font-family: Arial, sans-serif; font-size: 13.1732px; text-anchor: middle; white-space: pre;" transform="matrix(1.350085, 0, 0, 1.282091, -3.465954, -189.253311)" x="410.278" y="339.055">target</text>
  <text style="fill: rgb(51, 51, 51); font-family: Arial, sans-serif; font-size: 16px; text-anchor: middle; white-space: pre;" x="325.825" y="244.31" transform="matrix(1, 0, 0, 1.067936, 0, -15.625224)">publicip</text>
  <g transform="matrix(3.25, 0, 0, 3.416667, 80.430656, 66.270416)" style="">
    <g>
      <path fill="none" d="M0 0h24v24H0z"/>
      <path d="M17.084 15.812a7 7 0 1 0-10.168 0A5.996 5.996 0 0 1 12 13a5.996 5.996 0 0 1 5.084 2.812zM12 23.728l-6.364-6.364a9 9 0 1 1 12.728 0L12 23.728zM12 12a3 3 0 1 1 0-6 3 3 0 0 1 0 6z"/>
    </g>
  </g>
  <g transform="matrix(3.413394, 0, 0, 3.301862, 34.305573, 236.13385)" style=""/>
  <g transform="matrix(8.858268, 0, 0, 8.858268, 223.154531, 14.025591)"/>
  <path fill="none" d="M 285.622 75.529 L 363.42 75.529 L 363.42 158.313 L 285.622 158.313 L 285.622 75.529 Z"/>
  <g transform="matrix(2.909091, 0, 0, 2.666667, 85.521568, 162)" style="" bx:origin="-0.734375 -5.140198">
    <path d="M21 3H3c-1.11 0-2 .89-2 2v12c0 1.1.89 2 2 2h5v2h8v-2h5c1.1 0 1.99-.9 1.99-2L23 5c0-1.11-.9-2-2-2zm0 14H3V5h18v12z"/>
  </g>
  <path fill="none" d="M 286.805 76.955 L 363.805 76.955 L 363.805 156.955 L 286.805 156.955 L 286.805 76.955 Z"/>
  <g transform="matrix(3.25, 0, 0, 3.416667, 284.49762, 67.729568)" bx:origin="0.5 0.499923">
    <g>
      <path fill="none" d="M0 0h24v24H0z" style="stroke-width: 0px;"/>
      <path d="M 18.672 17.364 L 12.308 23.728 L 5.944 17.364 C 1.045 12.465 3.286 4.1 9.978 2.307 C 16.671 0.514 22.794 6.637 21.001 13.33 C 20.592 14.855 19.789 16.247 18.672 17.364 Z M 12.308 13 C 13.847 13 14.81 11.333 14.04 10 C 13.682 9.381 13.022 9 12.308 9 C 10.768 9 9.806 10.667 10.576 12 C 10.933 12.619 11.593 13 12.308 13 Z" style="stroke-width: 0px;"/>
    </g>
  </g>
  <g transform="matrix(3.384773, 0, 0, 3.357753, 507.700836, 73.933624)" style="" bx:origin="0.5 0.345123">
    <path d="M11.9982 1.99789C13.2019 1.99789 14.3559 2.21052 15.4248 2.60027L14.231 3.79411C13.5195 3.60097 12.7709 3.49789 11.9982 3.49789C7.30261 3.49789 3.49609 7.30441 3.49609 12C3.49609 16.6956 7.30261 20.5021 11.9982 20.5021C16.6938 20.5021 20.5003 16.6956 20.5003 12C20.5003 11.2284 20.3975 10.4807 20.2049 9.77008L21.3989 8.57608C21.788 9.64419 22.0003 10.7973 22.0003 12C22.0003 17.524 17.5222 22.0021 11.9982 22.0021C6.47419 22.0021 1.99609 17.524 1.99609 12C1.99609 6.47599 6.47419 1.99789 11.9982 1.99789ZM11.9982 6C12.5168 6 13.02 6.0658 13.5 6.18951L13.5001 7.75674C13.0304 7.59048 12.5248 7.5 11.9982 7.5C9.51289 7.5 7.49817 9.51472 7.49817 12C7.49817 14.4853 9.51289 16.5 11.9982 16.5C14.4834 16.5 16.4982 14.4853 16.4982 12C16.4982 11.474 16.4079 10.9692 16.2421 10.5L17.8091 10.5C17.9325 10.9794 17.9982 11.4821 17.9982 12C17.9982 15.3137 15.3119 18 11.9982 18C8.68446 18 5.99817 15.3137 5.99817 12C5.99817 8.68629 8.68446 6 11.9982 6ZM13.9982 12C13.9982 13.1046 13.1027 14 11.9982 14C10.8936 14 9.99817 13.1046 9.99817 12C9.99817 10.8954 10.8936 10 11.9982 10C12.2758 10 12.5402 10.0566 12.7805 10.1588L14.5001 8.43924L14.5 5.25004C14.5 5.05112 14.579 4.86035 14.7197 4.71969L17.2196 2.21963C17.4341 2.00512 17.7567 1.94095 18.0369 2.05703C18.3172 2.17312 18.4999 2.4466 18.4999 2.74995V5.49997L21.2501 5.50002C21.5535 5.50002 21.827 5.68276 21.943 5.96302C22.0591 6.24327 21.995 6.56586 21.7805 6.78035L19.2804 9.28035C19.1397 9.421 18.949 9.50001 18.7501 9.50001L15.5607 9.50002L13.8405 11.2202C13.942 11.4598 13.9982 11.7234 13.9982 12ZM18.4394 8.00001L19.4395 6.99999L17.7499 6.99996C17.3357 6.99995 16.9999 6.66416 16.9999 6.24996V4.56067L16 5.56065L16.0001 7.94105C16.0104 7.95026 16.0205 7.95981 16.0303 7.96968C16.0402 7.97959 16.0498 7.98971 16.059 8.00002L18.4394 8.00001Z" fill="#212121"/>
  </g>
  <g transform="matrix(6.697197, 0, 0, 6.490304, 361.221802, 118.609901)" style="">
    <path d="M3.75488 12.4995H20.2468C20.661 12.4995 20.9968 12.1637 20.9968 11.7495C20.9968 11.3353 20.661 10.9995 20.2468 10.9995H3.75488C3.34067 10.9995 3.00488 11.3353 3.00488 11.7495C3.00488 12.1637 3.34067 12.4995 3.75488 12.4995Z" fill="#212121"/>
  </g>
  <text style="fill: rgb(51, 51, 51); font-family: Arial, sans-serif; font-size: 17px; text-anchor: middle; white-space: pre;" x="118.5" y="245.471">localip</text>
  <text style="white-space: pre; fill: rgb(51, 51, 51); font-family: Arial, sans-serif; font-size: 22px;" x="287.864" y="305.129"> </text>
  <text style="fill: rgb(51, 51, 51); font-family: Arial, sans-serif; font-size: 16px; white-space: pre;" x="74.982" y="39.31" transform="matrix(1, 0, 0, 0.996027, 0, 0.094616)" bx:origin="2.439563 0.77304">You are here</text>
  <text style="fill: rgb(51, 51, 51); font-family: Arial, sans-serif; font-size: 16px; white-space: pre; text-anchor: middle;" transform="matrix(0.932353, 0, 0, 1.022567, 237.962418, -43.665096)" bx:origin="0.573758 0.664919"><tspan x="90.597" y="81.552">Your pod sshd tunnel</tspan></text>
  <text style="fill: rgb(51, 51, 51); font-family: Arial, sans-serif; font-size: 16px; white-space: pre;" x="485.55" y="39.31" transform="matrix(1, 0, 0, 1.011729, 0, -0.293213)" bx:origin="-0.695015 0.677127">Your target server </text>
  <g transform="matrix(1.440442, 0, 0, 1.535593, 253.961624, 166.928818)" style="">
    <path d="M10 2C12.2091 2 14 3.79086 14 6V8H15.75C16.9926 8 18 9.00736 18 10.25L18.0004 11C17.6815 11 17.3626 11.1096 17.1038 11.3286L16.9966 11.4293C16.8328 11.5998 16.6678 11.7519 16.5009 11.886L16.5 10.25C16.5 9.83579 16.1642 9.5 15.75 9.5H4.25C3.83579 9.5 3.5 9.83579 3.5 10.25V19.75C3.5 20.1642 3.83579 20.5 4.25 20.5L14.1384 20.5008C14.546 21.0774 15.0606 21.579 15.6783 22.0005L4.25 22C3.00736 22 2 20.9926 2 19.75V10.25C2 9.00736 3.00736 8 4.25 8H6V6C6 3.79086 7.79086 2 10 2ZM18.2837 12.1223C19.2758 13.1576 20.3751 13.6667 21.6 13.6667C21.7933 13.6667 21.9546 13.8095 21.9919 13.9994L22 14.0833V16.5844C22 19.2663 20.687 21.0896 18.1265 21.9786C18.0444 22.0071 17.9556 22.0071 17.8735 21.9786C15.3984 21.1192 14.0889 19.3868 14.0044 16.8497L14 16.5844V14.0833C14 13.8532 14.1791 13.6667 14.4 13.6667C15.6234 13.6667 16.7233 13.1575 17.7178 12.122C17.8741 11.9592 18.1276 11.9594 18.2837 12.1223ZM10.0001 13.5C10.8286 13.5 11.5001 14.1716 11.5001 15C11.5001 15.8284 10.8286 16.5 10.0001 16.5C9.1717 16.5 8.50012 15.8284 8.50012 15C8.50012 14.1716 9.1717 13.5 10.0001 13.5ZM10 3.5C8.61929 3.5 7.5 4.61929 7.5 6V8H12.5V6C12.5 4.61929 11.3807 3.5 10 3.5Z" fill="#212121"/>
  </g>
  <g transform="matrix(-0.000058, -1.157496, 1.051559, -0.000053, 33.768131, 205.437241)" style="">
    <g transform="translate(-635.53 -254.34)">
      <path transform="matrix(1.1292 0 0 .35758 630.44 296.5)" d="m7.05624,2.03033h13.38752a.55624,.55615 0 0,1 .55624.55615v6.85737a.55624,.55615 0 0,1 -.55624.55615h-13.38752a.55624,.55615 0 0,1 -.55624-.55615v-6.85737a.55624,.55615 0 0,1 .55624-.55615" filter="url(#g)" opacity=".1926" stroke="#000" stroke-width=".98493"/>
      <g transform="translate(621.47 253.35)">
        <path d="m19.58525,35.05376h10.07476a.625,.625 0 0,1 .625.625v8.27937a.625,.625 0 0,1 -.625.625h-10.07476a.625,.625 0 0,1 -.625-.625v-8.27937a.625,.625 0 0,1 .625-.625" fill="#fff"/>
        <path transform="scale(1,-1)" d="m18.10433-46.43095h12.83097a.56471,.56471 0 0,1 .56471.56471v13.80153a.56471,.56471 0 0,1 -.56471.56471h-12.83097a.56471,.56471 0 0,1 -.56471-.56471v-13.80153a.56471,.56471 0 0,1 .56471-.56471" fill="url(#c)" stroke="#555753"/>
        <path d="m19.04 44.931h11v-4.0792l-11-0.85179v4.931z" fill="#eeeeec" opacity=".3628"/>
        <path transform="scale(1,-1)" d="m20.5-43.404h3.0787v3.1132h-3.0787z" fill="url(#a)" opacity=".8817" stroke="url(#d)" stroke-width=".92"/>
        <path transform="scale(1,-1)" d="m18.54-45.431h11.96v13.035h-11.96z" fill="none" opacity=".7151" stroke="#eeeeec"/>
        <path transform="scale(1,-1)" d="m25.5-43.404h3.0787v3.1132h-3.0787z" fill="url(#a)" opacity=".8817" stroke="url(#e)" stroke-width=".92"/>
      </g>
      <path d="m637.65 254.85h16.704a1.625 1.6208 0 0 1 1.625 1.6208v32.742a1.625 1.6208 0 0 1 -1.625 1.6208h-16.704a1.625 1.6208 0 0 1 -1.625 -1.6208v-32.742a1.625 1.6208 0 0 1 1.625 -1.6208" fill="#bc0000" stroke="#2e3436" stroke-linecap="round" stroke-linejoin="round"/>
      <path d="m637.59436,255.84903h16.79362a.625,.62441 0 0,1 .625.62441v32.75118a.625,.62441 0 0,1 -.625.62441h-16.79362a.625,.62441 0 0,1 -.625-.62441v-32.75118a.625,.62441 0 0,1 .625-.62441" fill="none" stroke="#ef2929" stroke-linecap="round" stroke-linejoin="round"/>
      <path d="m638.05367,256.22403h15.76887a.77181,.73892 0 0,1 .77181.73892v1.64715a.77181,.73892 0 0,1 -.77181.73892h-15.76887a.77181,.73892 0 0,1 -.77181-.73892v-1.64715a.77181,.73892 0 0,1 .77181-.73892" fill="#fff" opacity=".7"/>
      <path d="m649.23 256.77a0.024414 0.1709 0 0 1 0.02441 0.1709 0.024414 0.1709 0 0 1 -0.02441 0.1709 0.024414 0.1709 0 0 1 -0.02441 -0.1709 0.024414 0.1709 0 0 1 0.02441 -0.1709" fill="#fff"/>
      <path d="m644.06595,283.54012c0-1.26928.4293-1.59861.95515-2.04177 .42215-.20026.48961-.33698.48406-.98102-.006-.71173-.0755-.63043-1.41785-1.77552-2.04958-1.74834-2.32521-2.1699-2.5659-3.92428-.17752-1.29389-.053-1.00927-.56259-1.50699-.93794-.91607-.77725-2.25954.33931-2.83694 1.00588-.52016 2.19747.0331 2.56493,1.19084 .18111.57061-.25308,1.55602-.8361,1.89756-.53352.31255-.75487-.20854-.63286.94358 .0675.63766.23208,1.37099.36567,1.62963 .22945.44421 2.47619,2.53531 2.72059,2.53531v-12.35308h-1.2454c.57609-.98232 1.13745-1.98018 1.69551-2.96841l1.77729,2.96841h-1.21057v8.3665c.16837,0 1.81906-1.64624 2.37451-2.38742 .23998-.32023.38562-.77493.38562-1.20398 0-.6471.21716-.78316-.2851-.78316h-.5351v-3.03225h3.03224v3.03225h-.49051c-.43766.0504-.75049.26957-.83311.9871-.12323,1.07009-.5896,1.7724-2.30593,3.47246l-1.34262,1.42276v5.07396l.39676.23269c.26978.12798.64133.54152.82567.91899 .65696,1.34525-.25607,2.79186-1.76209,2.79186-1.09135-.0393-1.89158-.59003-1.89158-1.66908z" fill="#eeeeec" opacity=".95"/>
      <path d="m636.47 256.27c-0.01-0.46578 0.59246-0.90122 1.0975-0.91605 0.57922-0.0181 16.208 0.0255 16.208 0.0255s1.823-0.19744 1.6872 1.0008c-4.2604 2.6873-11.247 10.748-10.71 15.641 1.1712 10.567-8.2733 17.328-8.2733 17.328s0.0119-31.502-9e-3 -33.08z" fill="url(#f)" opacity=".5"/>
    </g>
  </g>
  <g transform="matrix(4.869752, 0, 0, 5.803262, 145.187698, 126.167015)" style="">
    <path d="M3.75488 12.4995H20.2468C20.661 12.4995 20.9968 12.1637 20.9968 11.7495C20.9968 11.3353 20.661 10.9995 20.2468 10.9995H3.75488C3.34067 10.9995 3.00488 11.3353 3.00488 11.7495C3.00488 12.1637 3.34067 12.4995 3.75488 12.4995Z" fill="#212121"/>
  </g>
</svg>