<?xml version="1.0" ?><!DOCTYPE svg  PUBLIC '-//W3C//DTD SVG 1.1//EN'  'http://www.w3.org/Graphics/SVG/1.1/DTD/svg11.dtd'><svg height="176.389mm" style="shape-rendering:geometricPrecision; text-rendering:geometricPrecision; image-rendering:optimizeQuality; fill-rule:evenodd; clip-rule:evenodd" version="1.1" viewBox="0 0 17639 17639" width="176.389mm" xml:space="preserve" xmlns="http://www.w3.org/2000/svg" xmlns:xlink="http://www.w3.org/1999/xlink"><defs><style type="text/css">
   <![CDATA[
    .fil0 {fill:#38549E}
   ]]>
  </style></defs><g id="Layer_x0020_1"><g><path class="fil0" d="M9624 13870l-5769 -961c-27,-4 -165,-26 -180,-31 -341,-116 -14,6 -173,-116l0 -7938 6129 -1085 -7 10131zm254 -4239l988 0c2,485 2,967 0,1446l-988 0 0 -1446zm0 -2117l1093 0c318,318 635,635 953,953 0,552 0,1105 0,1658l-670 -1c0,-779 26,-881 -247,-881l-1129 0 0 -1729zm2275 -864l660 674 -660 635 -668 -655 668 -654zm-1168 406l-1107 0 0 -2188 3986 0c292,10 295,34 300,335l18 7180c-24,296 -25,321 -335,326l-3969 -9 0 -1199 1064 1c310,1 322,-113 312,-354l0 -600 1093 0 0 -2028c0,-25 30,-43 49,-60l1059 -1149 -1267 -1367 -1203 1112zm-8904 8537l13494 0 0 -13494 -13494 0 0 13494z"/></g><path class="fil0" d="M6531 9686l-604 -2595 -600 35 850 3453 684 32 971 -3626 -635 49c-52,4 -58,74 -91,202 -69,273 -123,559 -184,822l-391 1628z"/></g></svg>