<?xml version="1.0" encoding="UTF-8" standalone="no"?>
<svg
   xmlns:dc="http://purl.org/dc/elements/1.1/"
   xmlns:cc="http://creativecommons.org/ns#"
   xmlns:rdf="http://www.w3.org/1999/02/22-rdf-syntax-ns#"
   xmlns:svg="http://www.w3.org/2000/svg"
   xmlns="http://www.w3.org/2000/svg"
   xmlns:sodipodi="http://sodipodi.sourceforge.net/DTD/sodipodi-0.dtd"
   xmlns:inkscape="http://www.inkscape.org/namespaces/inkscape"
   height="1000"
   width="928.571"
   viewBox="0 0 1000 928"
   id="svg4200"
   version="1.1"
   inkscape:version="0.91 r13725"
   sodipodi:docname="bug.svg">
  <metadata
     id="metadata4208">
    <rdf:RDF>
      <cc:Work
         rdf:about="">
        <dc:format>image/svg+xml</dc:format>
        <dc:type
           rdf:resource="http://purl.org/dc/dcmitype/StillImage" />
      </cc:Work>
    </rdf:RDF>
  </metadata>
  <defs
     id="defs4206" />
  <sodipodi:namedview
     pagecolor="#ffffff"
     bordercolor="#666666"
     borderopacity="1"
     objecttolerance="10"
     gridtolerance="10"
     guidetolerance="10"
     inkscape:pageopacity="0"
     inkscape:pageshadow="2"
     inkscape:window-width="1615"
     inkscape:window-height="1026"
     id="namedview4204"
     showgrid="false"
     inkscape:zoom="0.857"
     inkscape:cx="464.28549"
     inkscape:cy="500"
     inkscape:window-x="65"
     inkscape:window-y="24"
     inkscape:window-maximized="1"
     inkscape:current-layer="svg4200" />
  <path
     d="M910.656 535.744q0 14.508 -10.602 25.11t-25.11 10.602h-124.992q0 95.418 -37.386 161.82l116.064 116.622q10.602 10.602 10.602 25.11t-10.602 25.11q-10.044 10.602 -25.11 10.602t-25.11 -10.602l-110.484 -109.926q-2.79 2.79 -8.37 7.254t-23.436 15.903 -36.27 20.367 -45.756 16.182 -54.126 7.254v-499.968h-71.424v499.968q-28.458 0 -56.637 -7.533t-48.546 -18.414 -36.828 -21.762 -24.273 -18.135l-8.37 -7.812 -102.114 115.506q-11.16 11.718 -26.784 11.718 -13.392 0 -23.994 -8.928 -10.602 -10.044 -11.439 -24.831t8.649 -25.947l112.716 -126.666q-32.364 -63.612 -32.364 -152.892h-124.992q-14.508 0 -25.11 -10.602t-10.602 -25.11 10.602 -25.11 25.11 -10.602h124.992v-164.052l-96.534 -96.534q-10.602 -10.602 -10.602 -25.11t10.602 -25.11 25.11 -10.602 25.11 10.602l96.534 96.534h470.952l96.534 -96.534q10.602 -10.602 25.11 -10.602t25.11 10.602 10.602 25.11 -10.602 25.11l-96.534 96.534v164.052h124.992q14.508 0 25.11 10.602t10.602 25.11zm-267.84 -321.408h-357.12q0 -74.214 52.173 -126.387t126.387 -52.173 126.387 52.173 52.173 126.387z"
     id="path4202"
     style="fill:#ffffff" />
</svg>
