<?xml version="1.0" encoding="UTF-8" standalone="no"?>
<!-- Generator: Adobe Illustrator 19.0.0, SVG Export Plug-In . SVG Version: 6.00 Build 0)  -->

<svg
   xmlns:dc="http://purl.org/dc/elements/1.1/"
   xmlns:cc="http://creativecommons.org/ns#"
   xmlns:rdf="http://www.w3.org/1999/02/22-rdf-syntax-ns#"
   xmlns:svg="http://www.w3.org/2000/svg"
   xmlns="http://www.w3.org/2000/svg"
   xmlns:sodipodi="http://sodipodi.sourceforge.net/DTD/sodipodi-0.dtd"
   xmlns:inkscape="http://www.inkscape.org/namespaces/inkscape"
   version="1.1"
   id="Capa_1"
   x="0px"
   y="0px"
   viewBox="0 0 483.537 483.537"
   style="enable-background:new 0 0 483.537 483.537;"
   xml:space="preserve"
   inkscape:version="0.91 r13725"
   sodipodi:docname="deny.svg"><metadata
     id="metadata3621"><rdf:RDF><cc:Work
         rdf:about=""><dc:format>image/svg+xml</dc:format><dc:type
           rdf:resource="http://purl.org/dc/dcmitype/StillImage" /><dc:title></dc:title></cc:Work></rdf:RDF></metadata><defs
     id="defs3619" /><sodipodi:namedview
     pagecolor="#ffffff"
     bordercolor="#666666"
     borderopacity="1"
     objecttolerance="10"
     gridtolerance="10"
     guidetolerance="10"
     inkscape:pageopacity="0"
     inkscape:pageshadow="2"
     inkscape:window-width="2495"
     inkscape:window-height="1416"
     id="namedview3617"
     showgrid="false"
     inkscape:zoom="0.48807021"
     inkscape:cx="-509.14806"
     inkscape:cy="323.72391"
     inkscape:window-x="65"
     inkscape:window-y="24"
     inkscape:window-maximized="1"
     inkscape:current-layer="Capa_1" /><rect
     style="opacity:1;fill:#ffffff;fill-opacity:1"
     id="rect6223"
     width="104.49316"
     height="305.28394"
     x="190.54636"
     y="120.88425" /><g
     id="g3549"
     style="fill:#d60000;fill-opacity:1;opacity:1"><g
       id="g3551"
       style="fill:#d60000;fill-opacity:1"><g
         id="g3553"
         style="fill:#d60000;fill-opacity:1"><path
           style="fill:#d60000;fill-opacity:1"
           d="M479.963,425.047L269.051,29.854c-5.259-9.88-15.565-16.081-26.782-16.081h-0.03     c-11.217,0-21.492,6.171-26.782,16.051L3.603,425.016c-5.046,9.485-4.773,20.854,0.699,29.974     c5.502,9.15,15.413,14.774,26.083,14.774H453.12c10.701,0,20.58-5.594,26.083-14.774     C484.705,445.84,484.979,434.471,479.963,425.047z M242.239,408.965c-16.781,0-30.399-13.619-30.399-30.399     c0-16.78,13.619-30.399,30.399-30.399c16.75,0,30.399,13.619,30.399,30.399C272.638,395.346,259.02,408.965,242.239,408.965z      M272.669,287.854c0,16.811-13.649,30.399-30.399,30.399c-16.781,0-30.399-13.589-30.399-30.399V166.256     c0-16.781,13.619-30.399,30.399-30.399c16.75,0,30.399,13.619,30.399,30.399V287.854z"
           id="path3555" /></g></g><g
       id="g3557"
       style="fill:#d60000;fill-opacity:1" /><g
       id="g3559"
       style="fill:#d60000;fill-opacity:1" /><g
       id="g3561"
       style="fill:#d60000;fill-opacity:1" /><g
       id="g3563"
       style="fill:#d60000;fill-opacity:1" /><g
       id="g3565"
       style="fill:#d60000;fill-opacity:1" /><g
       id="g3567"
       style="fill:#d60000;fill-opacity:1" /><g
       id="g3569"
       style="fill:#d60000;fill-opacity:1" /><g
       id="g3571"
       style="fill:#d60000;fill-opacity:1" /><g
       id="g3573"
       style="fill:#d60000;fill-opacity:1" /><g
       id="g3575"
       style="fill:#d60000;fill-opacity:1" /><g
       id="g3577"
       style="fill:#d60000;fill-opacity:1" /><g
       id="g3579"
       style="fill:#d60000;fill-opacity:1" /><g
       id="g3581"
       style="fill:#d60000;fill-opacity:1" /><g
       id="g3583"
       style="fill:#d60000;fill-opacity:1" /><g
       id="g3585"
       style="fill:#d60000;fill-opacity:1" /></g><g
     id="g3587" /><g
     id="g3589" /><g
     id="g3591" /><g
     id="g3593" /><g
     id="g3595" /><g
     id="g3597" /><g
     id="g3599" /><g
     id="g3601" /><g
     id="g3603" /><g
     id="g3605" /><g
     id="g3607" /><g
     id="g3609" /><g
     id="g3611" /><g
     id="g3613" /><g
     id="g3615" /><rect
     style="fill:#d60000;fill-opacity:1;stroke:none;stroke-opacity:1"
     id="rect4329"
     width="77.857651"
     height="288.89285"
     x="202.83968"
     y="127.03091" /><g
     id="g4307"
     transform="matrix(0.4450935,0,0,0.4450935,127.82456,190.8037)"><g
       id="g4265"><g
         id="g4267"><path
           id="path4269"
           d="m 437.333,192 -32,0 0,-42.667 C 405.333,66.99 338.344,0 256,0 173.656,0 106.667,66.99 106.667,149.333 l 0,42.667 -32,0 C 68.771,192 64,196.771 64,202.667 l 0,266.667 C 64,492.865 83.135,512 106.667,512 l 298.667,0 C 428.865,512 448,492.865 448,469.333 l 0,-266.666 C 448,196.771 443.229,192 437.333,192 Z M 287.938,414.823 c 0.333,3.01 -0.635,6.031 -2.656,8.292 -2.021,2.26 -4.917,3.552 -7.948,3.552 l -42.667,0 c -3.031,0 -5.927,-1.292 -7.948,-3.552 -2.021,-2.26 -2.99,-5.281 -2.656,-8.292 l 6.729,-60.51 C 219.865,346.365 213.334,333.792 213.334,320 c 0,-23.531 19.135,-42.667 42.667,-42.667 23.532,0 42.667,19.135 42.667,42.667 0,13.792 -6.531,26.365 -17.458,34.313 l 6.728,60.51 z M 341.333,192 l -170.666,0 0,-42.667 C 170.667,102.281 208.948,64 256,64 c 47.052,0 85.333,38.281 85.333,85.333 l 0,42.667 z"
           inkscape:connector-curvature="0"
           style="fill:#ffffff" /></g></g><g
       id="g4271" /><g
       id="g4273" /><g
       id="g4275" /><g
       id="g4277" /><g
       id="g4279" /><g
       id="g4281" /><g
       id="g4283" /><g
       id="g4285" /><g
       id="g4287" /><g
       id="g4289" /><g
       id="g4291" /><g
       id="g4293" /><g
       id="g4295" /><g
       id="g4297" /><g
       id="g4299" /></g></svg>