<?xml version="1.0" encoding="UTF-8" standalone="no"?>
<!-- Generator: Adobe Illustrator 19.0.0, SVG Export Plug-In . SVG Version: 6.00 Build 0)  -->

<svg
   xmlns:dc="http://purl.org/dc/elements/1.1/"
   xmlns:cc="http://creativecommons.org/ns#"
   xmlns:rdf="http://www.w3.org/1999/02/22-rdf-syntax-ns#"
   xmlns:svg="http://www.w3.org/2000/svg"
   xmlns="http://www.w3.org/2000/svg"
   xmlns:sodipodi="http://sodipodi.sourceforge.net/DTD/sodipodi-0.dtd"
   xmlns:inkscape="http://www.inkscape.org/namespaces/inkscape"
   version="1.1"
   id="Capa_1"
   x="0px"
   y="0px"
   viewBox="0 0 483.537 483.537"
   style="enable-background:new 0 0 483.537 483.537;"
   xml:space="preserve"
   inkscape:version="0.91 r13725"
   sodipodi:docname="error.svg"><metadata
     id="metadata3621"><rdf:RDF><cc:Work
         rdf:about=""><dc:format>image/svg+xml</dc:format><dc:type
           rdf:resource="http://purl.org/dc/dcmitype/StillImage" /><dc:title /></cc:Work></rdf:RDF></metadata><defs
     id="defs3619" /><sodipodi:namedview
     pagecolor="#ffffff"
     bordercolor="#666666"
     borderopacity="1"
     objecttolerance="10"
     gridtolerance="10"
     guidetolerance="10"
     inkscape:pageopacity="0"
     inkscape:pageshadow="2"
     inkscape:window-width="1615"
     inkscape:window-height="1026"
     id="namedview3617"
     showgrid="false"
     inkscape:zoom="0.48807021"
     inkscape:cx="-61.466566"
     inkscape:cy="241.76849"
     inkscape:window-x="65"
     inkscape:window-y="24"
     inkscape:window-maximized="1"
     inkscape:current-layer="Capa_1" /><rect
     style="opacity:1;fill:#ffffff;fill-opacity:1"
     id="rect6223"
     width="104.49316"
     height="305.28394"
     x="190.54636"
     y="120.88425" /><g
     id="g3549"
     style="fill:#d60000;fill-opacity:1;opacity:1"><g
       id="g3551"
       style="fill:#d60000;fill-opacity:1"><g
         id="g3553"
         style="fill:#d60000;fill-opacity:1"><path
           style="fill:#d60000;fill-opacity:1"
           d="M479.963,425.047L269.051,29.854c-5.259-9.88-15.565-16.081-26.782-16.081h-0.03     c-11.217,0-21.492,6.171-26.782,16.051L3.603,425.016c-5.046,9.485-4.773,20.854,0.699,29.974     c5.502,9.15,15.413,14.774,26.083,14.774H453.12c10.701,0,20.58-5.594,26.083-14.774     C484.705,445.84,484.979,434.471,479.963,425.047z M242.239,408.965c-16.781,0-30.399-13.619-30.399-30.399     c0-16.78,13.619-30.399,30.399-30.399c16.75,0,30.399,13.619,30.399,30.399C272.638,395.346,259.02,408.965,242.239,408.965z      M272.669,287.854c0,16.811-13.649,30.399-30.399,30.399c-16.781,0-30.399-13.589-30.399-30.399V166.256     c0-16.781,13.619-30.399,30.399-30.399c16.75,0,30.399,13.619,30.399,30.399V287.854z"
           id="path3555" /></g></g><g
       id="g3557"
       style="fill:#d60000;fill-opacity:1" /><g
       id="g3559"
       style="fill:#d60000;fill-opacity:1" /><g
       id="g3561"
       style="fill:#d60000;fill-opacity:1" /><g
       id="g3563"
       style="fill:#d60000;fill-opacity:1" /><g
       id="g3565"
       style="fill:#d60000;fill-opacity:1" /><g
       id="g3567"
       style="fill:#d60000;fill-opacity:1" /><g
       id="g3569"
       style="fill:#d60000;fill-opacity:1" /><g
       id="g3571"
       style="fill:#d60000;fill-opacity:1" /><g
       id="g3573"
       style="fill:#d60000;fill-opacity:1" /><g
       id="g3575"
       style="fill:#d60000;fill-opacity:1" /><g
       id="g3577"
       style="fill:#d60000;fill-opacity:1" /><g
       id="g3579"
       style="fill:#d60000;fill-opacity:1" /><g
       id="g3581"
       style="fill:#d60000;fill-opacity:1" /><g
       id="g3583"
       style="fill:#d60000;fill-opacity:1" /><g
       id="g3585"
       style="fill:#d60000;fill-opacity:1" /></g><g
     id="g3587" /><g
     id="g3589" /><g
     id="g3591" /><g
     id="g3593" /><g
     id="g3595" /><g
     id="g3597" /><g
     id="g3599" /><g
     id="g3601" /><g
     id="g3603" /><g
     id="g3605" /><g
     id="g3607" /><g
     id="g3609" /><g
     id="g3611" /><g
     id="g3613" /><g
     id="g3615" /></svg>