<?xml version="1.0" encoding="UTF-8" standalone="no"?>
<svg
   xmlns:dc="http://purl.org/dc/elements/1.1/"
   xmlns:cc="http://creativecommons.org/ns#"
   xmlns:rdf="http://www.w3.org/1999/02/22-rdf-syntax-ns#"
   xmlns:svg="http://www.w3.org/2000/svg"
   xmlns="http://www.w3.org/2000/svg"
   xmlns:sodipodi="http://sodipodi.sourceforge.net/DTD/sodipodi-0.dtd"
   xmlns:inkscape="http://www.inkscape.org/namespaces/inkscape"
   version="1.0"
   width="1000.000000pt"
   height="1000.000000pt"
   viewBox="0 0 1000.000000 1000.000000"
   preserveAspectRatio="xMidYMid meet"
   id="svg4185"
   inkscape:version="0.91 r13725"
   sodipodi:docname="minus.svg">
  <defs
     id="defs4197" />
  <sodipodi:namedview
     pagecolor="#ffffff"
     bordercolor="#666666"
     borderopacity="1"
     objecttolerance="10"
     gridtolerance="10"
     guidetolerance="10"
     inkscape:pageopacity="0"
     inkscape:pageshadow="2"
     inkscape:window-width="1615"
     inkscape:window-height="1026"
     id="namedview4195"
     showgrid="false"
     inkscape:zoom="0.6856"
     inkscape:cx="625"
     inkscape:cy="625"
     inkscape:window-x="65"
     inkscape:window-y="24"
     inkscape:window-maximized="1"
     inkscape:current-layer="svg4185" />
  <metadata
     id="metadata4187">
Created by potrace 1.13, written by Peter Selinger 2001-2015
<rdf:RDF>
  <cc:Work
     rdf:about="">
    <dc:format>image/svg+xml</dc:format>
    <dc:type
       rdf:resource="http://purl.org/dc/dcmitype/StillImage" />
  </cc:Work>
</rdf:RDF>
</metadata>
  <g
     transform="matrix(0.11031577,0,0,-0.11268559,-51.630437,1063.4442)"
     id="g4189"
     style="fill:#ffffff;stroke:none">
    <path
       d="m 4780,8954 c -136,-9 -366,-38 -490,-60 C 2649,8595 1359,7281 1096,5640 c -41,-254 -50,-372 -50,-645 1,-361 31,-615 114,-952 370,-1500 1606,-2660 3130,-2937 259,-47 414,-60 715,-60 383,0 644,32 990,121 1402,359 2511,1477 2855,2876 83,341 113,591 114,952 0,452 -60,830 -197,1246 -485,1469 -1780,2518 -3322,2694 -134,15 -550,27 -665,19 z m 655,-218 c 753,-92 1418,-379 2000,-865 116,-96 350,-330 446,-446 498,-597 786,-1276 871,-2055 16,-151 16,-582 0,-740 C 8672,3863 8375,3162 7881,2575 6902,1413 5299,954 3854,1421 2422,1884 1414,3131 1258,4630 c -16,161 -16,579 0,740 72,689 326,1341 736,1885 205,273 477,545 751,751 540,407 1217,671 1875,733 63,6 133,13 155,15 90,9 538,-4 660,-18 z"
       id="path4191"
       style="fill:#ffffff"
       inkscape:connector-curvature="0" />
    <path
       d="m 3280,5382 c -59,-29 -60,-35 -60,-382 0,-347 1,-353 60,-382 33,-17 136,-18 1725,-18 1589,0 1692,1 1725,18 59,29 60,35 60,382 0,347 -1,353 -60,382 -33,17 -136,18 -1725,18 -1589,0 -1692,-1 -1725,-18 z"
       id="path4193"
       style="fill:#ffffff"
       inkscape:connector-curvature="0" />
  </g>
</svg>
