<?xml version="1.0" standalone="no"?>
<!DOCTYPE svg PUBLIC "-//W3C//DTD SVG 20010904//EN"
 "http://www.w3.org/TR/2001/REC-SVG-20010904/DTD/svg10.dtd">
<svg version="1.0" xmlns="http://www.w3.org/2000/svg"
 width="1000.000000pt" height="1000.000000pt" viewBox="0 0 1000.000000 1000.000000"
 preserveAspectRatio="xMidYMid meet">
<metadata>
Created by potrace 1.13, written by Peter Selinger 2001-2015
</metadata>
<g transform="translate(0.000000,1000.000000) scale(0.100000,-0.100000)"
fill="#FFFFFF000" stroke="none">
<path d="M4780 8954 c-136 -9 -366 -38 -490 -60 -1641 -299 -2931 -1613 -3194
-3254 -41 -254 -50 -372 -50 -645 1 -361 31 -615 114 -952 370 -1500 1606
-2660 3130 -2937 259 -47 414 -60 715 -60 383 0 644 32 990 121 1402 359 2511
1477 2855 2876 83 341 113 591 114 952 0 452 -60 830 -197 1246 -485 1469
-1780 2518 -3322 2694 -134 15 -550 27 -665 19z m655 -218 c753 -92 1418 -379
2000 -865 116 -96 350 -330 446 -446 498 -597 786 -1276 871 -2055 16 -151 16
-582 0 -740 -80 -767 -377 -1468 -871 -2055 -979 -1162 -2582 -1621 -4027
-1154 -1432 463 -2440 1710 -2596 3209 -16 161 -16 579 0 740 72 689 326 1341
736 1885 205 273 477 545 751 751 540 407 1217 671 1875 733 63 6 133 13 155
15 90 9 538 -4 660 -18z"/>
<path d="M4639 6751 l-29 -29 0 -661 0 -661 -647 0 c-597 0 -651 -1 -683 -18
-59 -29 -60 -35 -60 -382 0 -347 1 -353 60 -382 32 -17 86 -18 683 -18 l647 0
0 -661 0 -661 29 -29 29 -29 337 0 337 0 29 29 29 29 0 661 0 661 648 0 c596
0 650 1 682 18 59 29 60 35 60 382 0 347 -1 353 -60 382 -32 17 -86 18 -682
18 l-648 0 0 661 0 661 -29 29 -29 29 -337 0 -337 0 -29 -29z"/>
</g>
</svg>
