<?xml version="1.0" encoding="utf-8"?>

<!DOCTYPE svg PUBLIC "-//W3C//DTD SVG 1.1//EN" "http://www.w3.org/Graphics/SVG/1.1/DTD/svg11.dtd">
<svg version="1.1" id="Layer_1" xmlns="http://www.w3.org/2000/svg" xmlns:xlink="http://www.w3.org/1999/xlink" x="0px" y="0px"
	 viewBox="0 0 2690 1396.224" enable-background="new 0 0 2690 1396.224" xml:space="preserve">
<g>
	<path d="M2364.503,687.154c2.77-17.763,4.219-35.964,4.219-54.505c0-193.847-157.144-350.99-350.99-350.99
		c-36.62,0-71.926,5.616-105.115,16.02c-57.031-116.698-176.879-197.087-315.516-197.087c-70.088,0-135.37,20.553-190.169,55.946
		c-64.374-75.161-159.956-122.801-266.676-122.801c-137.502,0-256.516,79.081-314.097,194.231
		c-47.848-24.444-102.043-38.235-159.461-38.235c-193.847,0-350.99,157.144-350.99,350.99c0,50.581,10.719,98.653,29.978,142.096
		C186.027,711.977,65,851.775,65,1019.853c0,189.231,153.402,342.633,342.633,342.633h1874.733
		c189.231,0,342.633-153.402,342.633-342.633C2625,858.937,2514.062,723.955,2364.503,687.154z M2085.854,1223.204H604.146
		c-149.56,0-270.802-121.242-270.802-270.802c0-132.841,95.655-243.332,221.841-266.377
		c-15.221-34.336-23.693-72.329-23.693-112.307c0-153.208,124.199-277.407,277.407-277.407c45.38,0,88.214,10.9,126.031,30.219
		c45.51-91.01,139.573-153.511,248.249-153.511c84.347,0,159.891,37.653,210.769,97.057c43.311-27.973,94.907-44.217,150.301-44.217
		c109.573,0,204.296,63.535,249.37,155.769c26.231-8.223,54.135-12.662,83.078-12.662c153.208,0,277.407,124.199,277.407,277.407
		c0,14.654-1.145,29.039-3.334,43.078c118.205,29.085,205.885,135.77,205.885,262.951
		C2356.656,1101.962,2235.414,1223.204,2085.854,1223.204z"/>
	<path d="M1521.789,619.678c0.292-1.642,0.452-3.329,0.452-5.054v-89.075c0-97.899-79.784-177.514-177.745-177.241
		c-97.971,0.273-176.738,80.984-176.738,178.956v87.36c0,1.726,0.161,3.413,0.452,5.054c-27.899,18.812-46.247,50.706-46.247,86.886
		v236.633c0,57.835,46.885,104.719,104.719,104.719h236.633c57.835,0,104.72-46.884,104.72-104.719V706.564
		C1568.036,670.384,1549.687,638.49,1521.789,619.678z M1368.495,808.936l10.262,122.083c0.479,5.693-4.013,10.578-9.726,10.578
		h-49.722c-5.726,0-10.222-4.907-9.723-10.611l10.762-122.922c0.454-5.192-1.678-10.293-5.739-13.56
		c-11.053-8.893-18.127-22.531-18.127-37.822c0-21.135,13.514-39.113,32.372-45.767c5.051-1.782,10.486-2.752,16.147-2.752
		c5.32,0,10.439,0.857,15.229,2.439c19.335,6.387,33.289,24.603,33.289,46.079c0,15.687-7.445,29.635-18.994,38.504
		C1370.299,798.43,1368.048,803.628,1368.495,808.936z M1226.684,601.844c-0.496,0-0.99,0.012-1.485,0.019v-74.996
		c0-66.108,52.994-120.737,119.101-121.117c66.379-0.382,120.502,53.507,120.502,119.799v76.315
		c-0.495-0.007-0.989-0.019-1.486-0.019H1226.684z"/>
</g>
</svg>
