<?xml version="1.0" encoding="UTF-8" standalone="no"?>
<svg
   xmlns:dc="http://purl.org/dc/elements/1.1/"
   xmlns:cc="http://creativecommons.org/ns#"
   xmlns:rdf="http://www.w3.org/1999/02/22-rdf-syntax-ns#"
   xmlns:svg="http://www.w3.org/2000/svg"
   xmlns="http://www.w3.org/2000/svg"
   viewBox="0 0 275.58667 275.58667"
   height="275.58667"
   width="275.58667"
   xml:space="preserve"
   id="svg2"
   version="1.1"><metadata
     id="metadata8"><rdf:RDF><cc:Work
         rdf:about=""><dc:format>image/svg+xml</dc:format><dc:type
           rdf:resource="http://purl.org/dc/dcmitype/StillImage" /></cc:Work></rdf:RDF></metadata><defs
     id="defs6"><clipPath
       id="clipPath20"
       clipPathUnits="userSpaceOnUse"><path
         id="path18"
         d="M 1587.07,2066.9 H 479.836 C 214.805,2066.9 0,1852.05 0,1587.07 V 479.828 C 0,214.84 214.805,0 479.836,0 H 1587.07 c 264.99,0 479.83,214.84 479.83,479.828 V 1587.07 c 0,264.98 -214.84,479.83 -479.83,479.83 z" /></clipPath><linearGradient
       id="linearGradient26"
       spreadMethod="pad"
       gradientTransform="matrix(-9.03e-5,-2066.91,-2066.91,9.03e-5,1033.45,2066.9)"
       gradientUnits="userSpaceOnUse"
       y2="0"
       x2="1"
       y1="0"
       x1="0"><stop
         id="stop22"
         offset="0"
         style="stop-opacity:1;stop-color:#a09cb3" /><stop
         id="stop24"
         offset="1"
         style="stop-opacity:1;stop-color:#524d78" /></linearGradient><clipPath
       id="clipPath36"
       clipPathUnits="userSpaceOnUse"><path
         id="path34"
         d="M 0,2066.9 V 0 h 2066.9 v 2066.9 z" /></clipPath></defs><g
     transform="matrix(1.3333333,0,0,-1.3333333,0,275.58667)"
     id="g10"><g
       transform="scale(0.1)"
       id="g12"><g
         id="g14"><g
           clip-path="url(#clipPath20)"
           id="g16"><path
             id="path28"
             style="fill:url(#linearGradient26);fill-opacity:1;fill-rule:nonzero;stroke:none"
             d="M 1587.07,2066.9 H 479.836 C 214.805,2066.9 0,1852.05 0,1587.07 V 479.828 C 0,214.84 214.805,0 479.836,0 H 1587.07 c 264.99,0 479.83,214.84 479.83,479.828 V 1587.07 c 0,264.98 -214.84,479.83 -479.83,479.83" /></g></g><g
         id="g30"><g
           clip-path="url(#clipPath36)"
           id="g32"><path
             id="path38"
             style="fill:#ffffff;fill-opacity:1;fill-rule:nonzero;stroke:none"
             d="m 694.16,1724.22 c 83.945,104.95 204.766,165.14 331.47,165.14 126.62,0 247.43,-60.19 331.42,-165.14 73.72,-92.08 114.39,-211.65 114.39,-336.7 0,-50.38 -6.74,-99.82 -19.46,-147.01 h -234.61 c 21.12,42.75 33.25,93.14 33.25,147.01 0,155.2 -100.71,281.05 -224.99,281.05 -124.282,0 -225.032,-125.85 -225.032,-281.05 0,-53.87 12.175,-104.26 33.203,-147.01 H 599.148 c -12.671,47.19 -19.375,96.63 -19.375,147.01 0,125.05 40.637,244.62 114.387,336.7" /><path
             id="path40"
             style="fill:#ffffff;fill-opacity:1;fill-rule:nonzero;stroke:none"
             d="m 1584.42,293.898 c 0,-51.589 -41.85,-93.457 -93.46,-93.457 H 1359.4 V 757.738 L 1232.7,200.441 H 818.242 L 691.531,757.738 V 200.441 h -131.59 c -51.562,0 -93.425,41.868 -93.425,93.457 v 758.842 c 0,51.6 41.863,93.47 93.425,93.47 H 928.418 L 1025.2,755.73 h 0.5 l 96.82,390.48 h 368.44 c 51.61,0 93.46,-41.87 93.46,-93.47 V 293.898" /></g></g></g></g></svg>