<?xml version="1.0" encoding="iso-8859-1"?>
<!-- Generator: Adobe Illustrator 16.0.0, SVG Export Plug-In . SVG Version: 6.00 Build 0)  -->
<!DOCTYPE svg PUBLIC "-//W3C//DTD SVG 1.1//EN" "http://www.w3.org/Graphics/SVG/1.1/DTD/svg11.dtd">
<svg xmlns="http://www.w3.org/2000/svg" xmlns:xlink="http://www.w3.org/1999/xlink" version="1.1" id="Capa_1" x="0px" y="0px" width="512px" height="512px" viewBox="0 0 354.575 354.575" style="enable-background:new 0 0 354.575 354.575;" xml:space="preserve">
<g>
	<path d="M336.567,63.396c-0.646-0.403-1.33-0.715-2.039-0.935c-0.15-0.07-0.295-0.146-0.449-0.208L180.525,0.621   c-2.357-0.938-5.013-0.812-7.264,0.365L19.225,81.498c-0.135,0.07-0.259,0.151-0.388,0.229c-0.415,0.2-0.82,0.423-1.204,0.691   c-2.321,1.627-3.703,4.283-3.703,7.117v200.18c0,3.658,2.288,6.922,5.725,8.17l154.665,56.166c0.15,0.055,0.303,0.098,0.455,0.144   c0.065,0.02,0.128,0.042,0.193,0.061c0.333,0.093,0.67,0.161,1.009,0.214c0.083,0.014,0.165,0.022,0.248,0.033   c0.354,0.043,0.708,0.073,1.062,0.073c0.393,0,0.785-0.036,1.176-0.089c0.116-0.018,0.23-0.039,0.348-0.061   c0.286-0.052,0.568-0.116,0.852-0.196c0.113-0.032,0.227-0.062,0.338-0.098c0.365-0.121,0.727-0.258,1.078-0.429l0.037-0.019   c0.002-0.002,0.004-0.003,0.006-0.003l154.621-74.923c2.998-1.451,4.902-4.49,4.902-7.82V70.759   C340.643,67.768,339.104,64.985,336.567,63.396z M177.765,18.249l132.7,53.265l-133.663,64.769L44.126,88.098L177.765,18.249z    M31.314,101.941l137.281,49.853v181.685L31.314,283.626V101.941L31.314,101.941z M323.26,265.495l-137.281,66.518V151.148   l137.281-66.52V265.495z" fill="#FFFFFF"/>
</g>
<g>
</g>
<g>
</g>
<g>
</g>
<g>
</g>
<g>
</g>
<g>
</g>
<g>
</g>
<g>
</g>
<g>
</g>
<g>
</g>
<g>
</g>
<g>
</g>
<g>
</g>
<g>
</g>
<g>
</g>
</svg>
