<svg width="430.123" height="430.123" xmlns="http://www.w3.org/2000/svg">
 <g>
  <title>Layer 1</title>
  <g id="svg_1">
   <path fill="#444444" d="m348.911011,169.419998l-128.653015,-78.358002l81.132996,-67.163996l128.731995,79.216997l-81.211975,66.305zm-48.378998,148.112015l123.546997,-72.331009l-74.309998,-62.858002l-120.961014,73.190994l71.724014,61.998016zm-99.20401,-61.998016l-120.973,-73.190994l-74.295003,62.858002l123.559003,72.331009l71.709,-61.998016zm-114.922005,51.665009v23.251007l123.472008,75.773987v-143.809998l-81.989006,67.167999l-41.483002,-22.382996zm257.306007,0l-41.453003,22.388l-82.001007,-67.173004v143.811005l123.45401,-75.774017v-23.251984l0,0zm-133.834,-216.137009l-81.13501,-67.163996l-128.742996,79.216997l81.225998,66.305l128.652008,-78.358002z" id="Dropbox_1_"/>
  </g>
  <g id="svg_2"/>
  <g id="svg_3"/>
  <g id="svg_4"/>
  <g id="svg_5"/>
  <g id="svg_6"/>
  <g id="svg_7"/>
  <g id="svg_8"/>
  <g id="svg_9"/>
  <g id="svg_10"/>
  <g id="svg_11"/>
  <g id="svg_12"/>
  <g id="svg_13"/>
  <g id="svg_14"/>
  <g id="svg_15"/>
  <g id="svg_16"/>
 </g>
</svg>