<?xml version="1.0" encoding="iso-8859-1"?>
	<svg version="1.1" id="Capa_1" xmlns="http://www.w3.org/2000/svg" xmlns:xlink="http://www.w3.org/1999/xlink" x="0px" y="0px"
		viewBox="0 0 469.333 469.333" style="enable-background:new 0 0 469.333 469.333;" xml:space="preserve">
	<g>
		<path style="fill:#FFFFFF;" d="M160,0c-5.896,0-10.667,4.771-10.667,10.667v138.667H10.667C4.771,149.333,0,154.104,0,160
			c0,5.896,4.771,10.667,10.667,10.667H160c5.896,0,10.667-4.771,10.667-10.667V10.667C170.667,4.771,165.896,0,160,0z"/>
		<path style="fill:#FFFFFF;" d="M309.333,170.667h149.333c5.896,0,10.667-4.771,10.667-10.667c0-5.896-4.771-10.667-10.667-10.667
			H320V10.667C320,4.771,315.229,0,309.333,0s-10.667,4.771-10.667,10.667V160C298.667,165.896,303.438,170.667,309.333,170.667z"/>
		<path style="fill:#FFFFFF;" d="M458.667,298.667H309.333c-5.896,0-10.667,4.771-10.667,10.667v149.333
			c0,5.896,4.771,10.667,10.667,10.667S320,464.563,320,458.667V320h138.667c5.896,0,10.667-4.771,10.667-10.667
			S464.563,298.667,458.667,298.667z"/>
		<path style="fill:#FFFFFF;" d="M160,298.667H10.667C4.771,298.667,0,303.438,0,309.333S4.771,320,10.667,320h138.667v138.667
			c0,5.896,4.771,10.667,10.667,10.667c5.896,0,10.667-4.771,10.667-10.667V309.333C170.667,303.438,165.896,298.667,160,298.667z"/>
	</g>
	<linearGradient id="SVGID_1_" gradientUnits="userSpaceOnUse" x1="-66.4552" y1="618.0089" x2="-45.6177" y2="608.2932" gradientTransform="matrix(21.3333 0 0 -21.3333 1430.1112 13315.2227)">
		<stop  offset="0" style="stop-color:#FFFFFF;stop-opacity:0.2"/>
		<stop  offset="1" style="stop-color:#FFFFFF;stop-opacity:0"/>
	</linearGradient>
	<path style="fill:url(#SVGID_1_);" d="M160,0c-5.896,0-10.667,4.771-10.667,10.667v138.667H10.667C4.771,149.333,0,154.104,0,160
		c0,5.896,4.771,10.667,10.667,10.667H160c5.896,0,10.667-4.771,10.667-10.667V10.667C170.667,4.771,165.896,0,160,0z
		M309.333,170.667h149.333c5.896,0,10.667-4.771,10.667-10.667c0-5.896-4.771-10.667-10.667-10.667H320V10.667
		C320,4.771,315.229,0,309.333,0s-10.667,4.771-10.667,10.667V160C298.667,165.896,303.438,170.667,309.333,170.667z
		M458.667,298.667H309.333c-5.896,0-10.667,4.771-10.667,10.667v149.333c0,5.896,4.771,10.667,10.667,10.667
		S320,464.563,320,458.667V320h138.667c5.896,0,10.667-4.771,10.667-10.667S464.563,298.667,458.667,298.667z M160,298.667H10.667
		C4.771,298.667,0,303.438,0,309.333S4.771,320,10.667,320h138.667v138.667c0,5.896,4.771,10.667,10.667,10.667
		c5.896,0,10.667-4.771,10.667-10.667V309.333C170.667,303.438,165.896,298.667,160,298.667z"/>
</svg>
