<svg width="438.529" height="438.529" viewBox="0 0 439 439" preserveAspectRatio="xMidYMid meet" xmlns="http://www.w3.org/2000/svg">
 <g>
  <title>Layer 1</title>
  <g id="svg_19">
   <g id="svg_20">
    <path fill="#ffffff" id="svg_21" d="m180.156006,225.828003c-1.903,-1.901993 -4.093002,-2.854004 -6.567001,-2.854004c-2.475006,0 -4.664993,0.951004 -6.567001,2.854004l-94.787003,94.786987l-41.111996,-41.116974c-3.617001,-3.610016 -7.895,-5.421021 -12.847,-5.421021c-4.952001,0 -9.235001,1.811005 -12.851001,5.421021c-3.617,3.621002 -5.424,7.904999 -5.424,12.854004v127.906982c0,4.947998 1.807,9.229004 5.424,12.847015c3.619,3.612976 7.902,5.423981 12.851001,5.423981h127.906002c4.94899,0 9.229996,-1.811005 12.847,-5.423981c3.61499,-3.617004 5.423996,-7.89801 5.423996,-12.847015s-1.809006,-9.233002 -5.423996,-12.854004l-41.112007,-41.104004l94.78701,-94.792999c1.901993,-1.902985 2.852997,-4.085999 2.852997,-6.563995c0,-2.477997 -0.953003,-4.660004 -2.852997,-6.570007l-32.548004,-32.54599z"/>
    <path fill="#ffffff" id="svg_22" d="m433.109985,5.424c-3.613983,-3.617 -7.89798,-5.424 -12.846985,-5.424h-127.907013c-4.947998,0 -9.22699,1.807 -12.847015,5.424c-3.613983,3.615 -5.42099,7.898002 -5.42099,12.847s1.807007,9.233 5.42099,12.847l41.106018,41.112003l-94.786011,94.786995c-1.901001,1.906006 -2.854004,4.093002 -2.854004,6.567001s0.953003,4.665009 2.854004,6.567001l32.552002,32.548004c1.902008,1.903 4.085999,2.852997 6.562988,2.852997s4.661011,-0.949997 6.563019,-2.852997l94.794006,-94.787003l41.103973,41.108994c3.620026,3.615997 7.904999,5.428009 12.854004,5.428009s9.229004,-1.812012 12.847015,-5.428009c3.613983,-3.613998 5.42099,-7.897995 5.42099,-12.847v-127.905996c0.003021,-4.953 -1.792969,-9.228 -5.416992,-12.844z"/>
   </g>
  </g>
  <g id="svg_23"/>
  <g id="svg_24"/>
  <g id="svg_25"/>
  <g id="svg_26"/>
  <g id="svg_27"/>
  <g id="svg_28"/>
  <g id="svg_29"/>
  <g id="svg_30"/>
  <g id="svg_31"/>
  <g id="svg_32"/>
  <g id="svg_33"/>
  <g id="svg_34"/>
  <g id="svg_35"/>
  <g id="svg_36"/>
  <g id="svg_37"/>
 </g>
</svg>