<?xml version="1.0" encoding="UTF-8" standalone="no"?>
<!-- Generator: Adobe Illustrator 19.0.0, SVG Export Plug-In . SVG Version: 6.00 Build 0)  -->

<svg
   xmlns:dc="http://purl.org/dc/elements/1.1/"
   xmlns:cc="http://creativecommons.org/ns#"
   xmlns:rdf="http://www.w3.org/1999/02/22-rdf-syntax-ns#"
   xmlns:svg="http://www.w3.org/2000/svg"
   xmlns="http://www.w3.org/2000/svg"
   xmlns:sodipodi="http://sodipodi.sourceforge.net/DTD/sodipodi-0.dtd"
   xmlns:inkscape="http://www.inkscape.org/namespaces/inkscape"
   version="1.1"
   id="Layer_1"
   x="0px"
   y="0px"
   viewBox="0 0 330 330"
   style="enable-background:new 0 0 330 330;"
   xml:space="preserve"
   width="512px"
   height="512px"
   inkscape:version="0.91 r13725"
   sodipodi:docname="logout.svg"><metadata
     id="metadata40"><rdf:RDF><cc:Work
         rdf:about=""><dc:format>image/svg+xml</dc:format><dc:type
           rdf:resource="http://purl.org/dc/dcmitype/StillImage" /></cc:Work></rdf:RDF></metadata><defs
     id="defs38" /><sodipodi:namedview
     pagecolor="#ffffff"
     bordercolor="#666666"
     borderopacity="1"
     objecttolerance="10"
     gridtolerance="10"
     guidetolerance="10"
     inkscape:pageopacity="0"
     inkscape:pageshadow="2"
     inkscape:window-width="2495"
     inkscape:window-height="1416"
     id="namedview36"
     showgrid="false"
     inkscape:zoom="0.4609375"
     inkscape:cx="-99.79661"
     inkscape:cy="256"
     inkscape:window-x="65"
     inkscape:window-y="24"
     inkscape:window-maximized="1"
     inkscape:current-layer="XMLID_2_" /><g
     id="XMLID_2_"
     transform="matrix(-1,0,0,-1,330,330)"><path
       id="XMLID_4_"
       d="m 51.213,180 148.00375,0 c 8.284,0 15,-6.716 15,-15 0,-8.284 -6.716,-15 -15,-15 L 51.213,150 70.607,130.607 c 5.858,-5.857 5.858,-15.355 0,-21.213 -5.856,-5.858 -15.354,-5.858 -21.213,0 L 4.397,154.391 c -0.348,0.347 -0.676,0.71 -0.988,1.09 -0.076,0.093 -0.141,0.193 -0.215,0.288 -0.229,0.291 -0.454,0.583 -0.66,0.891 -0.06,0.09 -0.109,0.185 -0.168,0.276 -0.206,0.322 -0.408,0.647 -0.59,0.986 -0.035,0.067 -0.064,0.138 -0.099,0.205 -0.189,0.367 -0.371,0.739 -0.53,1.123 -0.02,0.047 -0.034,0.097 -0.053,0.145 -0.16300004,0.404 -0.31400004,0.813 -0.44200004,1.234 -0.017,0.053 -0.026,0.108 -0.041,0.162 -0.121,0.413 -0.232,0.83 -0.317,1.257 -0.025,0.127 -0.036,0.258 -0.059,0.386 -0.062,0.354 -0.124,0.708 -0.159,1.069 -0.051,0.495 -0.07600000081812,0.995 -0.07600000081812,1.497 0,0.502 0.02500000081812,1.002 0.07600000081812,1.498 0.035,0.366 0.099,0.723 0.16,1.08 0.022,0.124 0.033,0.251 0.058,0.374 0.086,0.431 0.196,0.852 0.318,1.269 0.015,0.049 0.024,0.101 0.039,0.15 0.129,0.423 0.28,0.836 0.44500004,1.244 0.018,0.044 0.031,0.091 0.05,0.135 0.16,0.387 0.343,0.761 0.534,1.13 0.033,0.065 0.061,0.133 0.095,0.198 0.184,0.341 0.387,0.669 0.596,0.994 0.056,0.088 0.104,0.181 0.162,0.267 0.207,0.309 0.434,0.603 0.662,0.895 0.073,0.094 0.138,0.193 0.213,0.285 0.313,0.379 0.641,0.743 0.988,1.09 l 44.997,44.997 C 52.322,223.536 56.161,225 60,225 c 3.839,0 7.678,-1.464 10.606,-4.394 5.858,-5.858 5.858,-15.355 0,-21.213 z"
       inkscape:connector-curvature="0"
       style="fill:#FFFFFF"
       sodipodi:nodetypes="csssccccccccccccccccccscccccccccccccscscsc" /><path
       id="XMLID_5_"
       d="m 207.299,42.299 c -40.944,0 -79.038,20.312 -101.903,54.333 -4.62,6.875 -2.792,16.195 4.083,20.816 6.876,4.62 16.195,2.794 20.817,-4.083 C 147.577,87.65 176.363,72.298 207.299,72.298 258.414,72.299 300,113.884 300,165 c 0,51.116 -41.586,92.701 -92.701,92.701 -30.845,0 -59.584,-15.283 -76.878,-40.881 -4.639,-6.865 -13.961,-8.669 -20.827,-4.032 -6.864,4.638 -8.67,13.962 -4.032,20.826 22.881,33.868 60.913,54.087 101.737,54.087 C 274.956,287.701 330,232.658 330,165 330,97.342 274.956,42.299 207.299,42.299 Z"
       inkscape:connector-curvature="0"
       style="fill:#FFFFFF" /></g><g
     id="g6" /><g
     id="g8" /><g
     id="g10" /><g
     id="g12" /><g
     id="g14" /><g
     id="g16" /><g
     id="g18" /><g
     id="g20" /><g
     id="g22" /><g
     id="g24" /><g
     id="g26" /><g
     id="g28" /><g
     id="g30" /><g
     id="g32" /><g
     id="g34" /></svg>