<?xml version="1.0" encoding="iso-8859-1"?>
<!-- Generator: Adobe Illustrator 19.1.0, SVG Export Plug-In . SVG Version: 6.00 Build 0)  -->
<svg xmlns="http://www.w3.org/2000/svg" xmlns:xlink="http://www.w3.org/1999/xlink" version="1.1" id="Capa_1" x="0px" y="0px" viewBox="0 0 39.474 39.474" style="enable-background:new 0 0 39.474 39.474;" xml:space="preserve" width="512px" height="512px">
<path d="M38.347,4.825c0.619,0,1.127,0.508,1.127,1.127v27.571c0,0.619-0.508,1.127-1.127,1.127h-0.27H1.381  h-0.27C0.492,34.649,0,34.141,0,33.522V5.952c0-0.619,0.492-1.127,1.111-1.127h0.27h0.317h0.587c11.825,0,23.65,0,35.49,0h0.302  H38.347z M19.729,20.348l8.444-7.301l6.904-5.984h-0.032H34.49c-9.65,0-19.316,0-28.983,0h-0.54h-0.54H4.381l6.904,5.984  L19.729,20.348z M29.633,14.729l-9.158,7.936c-0.413,0.365-1.048,0.381-1.476,0.016l-9.174-7.952L2.238,8.158v23.158l7.587-6.587  l4.254-3.667c0.46-0.413,1.175-0.365,1.571,0.111c0.413,0.46,0.349,1.175-0.111,1.571l-4.254,3.682l-6.904,5.968h30.697  l-6.904-5.968l-4.254-3.682c-0.46-0.397-0.508-1.111-0.111-1.571c0.413-0.476,1.111-0.524,1.571-0.111l4.254,3.667l7.603,6.587  V8.158L29.633,14.729z" fill="#FFFFFF"/>
<g>
</g>
<g>
</g>
<g>
</g>
<g>
</g>
<g>
</g>
<g>
</g>
<g>
</g>
<g>
</g>
<g>
</g>
<g>
</g>
<g>
</g>
<g>
</g>
<g>
</g>
<g>
</g>
<g>
</g>
</svg>
