<?xml version="1.0" encoding="UTF-8" standalone="no"?>
<!-- Generator: Adobe Illustrator 16.0.0, SVG Export Plug-In . SVG Version: 6.00 Build 0)  -->

<svg
   xmlns:dc="http://purl.org/dc/elements/1.1/"
   xmlns:cc="http://creativecommons.org/ns#"
   xmlns:rdf="http://www.w3.org/1999/02/22-rdf-syntax-ns#"
   xmlns:svg="http://www.w3.org/2000/svg"
   xmlns="http://www.w3.org/2000/svg"
   xmlns:sodipodi="http://sodipodi.sourceforge.net/DTD/sodipodi-0.dtd"
   xmlns:inkscape="http://www.inkscape.org/namespaces/inkscape"
   version="1.1"
   id="Capa_1"
   x="0px"
   y="0px"
   width="512px"
   height="512px"
   viewBox="0 0 48.015 48.015"
   style="enable-background:new 0 0 48.015 48.015;"
   xml:space="preserve"
   inkscape:version="0.91 r13725"
   sodipodi:docname="music_on.svg"><metadata
     id="metadata43"><rdf:RDF><cc:Work
         rdf:about=""><dc:format>image/svg+xml</dc:format><dc:type
           rdf:resource="http://purl.org/dc/dcmitype/StillImage" /><dc:title></dc:title></cc:Work></rdf:RDF></metadata><defs
     id="defs41" /><sodipodi:namedview
     pagecolor="#ffffff"
     bordercolor="#666666"
     borderopacity="1"
     objecttolerance="10"
     gridtolerance="10"
     guidetolerance="10"
     inkscape:pageopacity="0"
     inkscape:pageshadow="2"
     inkscape:window-width="2495"
     inkscape:window-height="1416"
     id="namedview39"
     showgrid="false"
     inkscape:zoom="0.4609375"
     inkscape:cx="256"
     inkscape:cy="256"
     inkscape:window-x="2625"
     inkscape:window-y="24"
     inkscape:window-maximized="1"
     inkscape:current-layer="Capa_1" /><g
     id="g3"
     style="fill:#ffffff"><g
       id="g5"
       style="fill:#ffffff"><path
         d="M15.734,8.41v4.84v5.058v14.236c-1.268-0.777-2.754-1.233-4.35-1.233c-4.612,0-8.353,3.74-8.353,8.351    c0,4.613,3.74,8.354,8.353,8.354c4.61,0,8.349-3.737,8.35-8.352l0,0V17.159l21.25-6.109v14.288    c-1.269-0.777-2.754-1.233-4.351-1.233c-4.613,0-8.354,3.739-8.354,8.347c0,4.613,3.739,8.354,8.354,8.354    c4.345,0,7.914-3.324,8.311-7.568h0.04V9.9V6.314V0L15.734,8.41z"
         fill="#FFFFFF"
         id="path7"
         style="fill:#ffffff" /></g></g><g
     id="g9" /><g
     id="g11" /><g
     id="g13" /><g
     id="g15" /><g
     id="g17" /><g
     id="g19" /><g
     id="g21" /><g
     id="g23" /><g
     id="g25" /><g
     id="g27" /><g
     id="g29" /><g
     id="g31" /><g
     id="g33" /><g
     id="g35" /><g
     id="g37" /><g
     id="g3414"
     transform="matrix(1.4775217,0,0,1.2708222,24.486714,25.410274)"
     style="fill:#FFFFFF"><g
       id="g3372"
       style="fill:#FFFFFF"><g
         id="c98_play"
         style="fill:#FFFFFF"><path
           id="path3375"
           d="M 2.067,0.043 C 2.21,-0.028 2.372,-0.008 2.493,0.085 l 13.312,8.503 c 0.094,0.078 0.154,0.191 0.154,0.313 0,0.12 -0.061,0.237 -0.154,0.314 L 2.492,17.717 c -0.07,0.057 -0.162,0.087 -0.25,0.087 L 2.066,17.764 C 1.93,17.699 1.844,17.557 1.844,17.403 l 0,-17.001 C 1.844,0.25 1.93,0.107 2.067,0.043 Z"
           inkscape:connector-curvature="0"
           style="fill:#FFFFFF" /></g><g
         id="Capa_1_78_"
         style="fill:#FFFFFF" /></g><g
       id="g3378"
       style="fill:#FFFFFF" /><g
       id="g3380"
       style="fill:#FFFFFF" /><g
       id="g3382"
       style="fill:#FFFFFF" /><g
       id="g3384"
       style="fill:#FFFFFF" /><g
       id="g3386"
       style="fill:#FFFFFF" /><g
       id="g3388"
       style="fill:#FFFFFF" /><g
       id="g3390"
       style="fill:#FFFFFF" /><g
       id="g3392"
       style="fill:#FFFFFF" /><g
       id="g3394"
       style="fill:#FFFFFF" /><g
       id="g3396"
       style="fill:#FFFFFF" /><g
       id="g3398"
       style="fill:#FFFFFF" /><g
       id="g3400"
       style="fill:#FFFFFF" /><g
       id="g3402"
       style="fill:#FFFFFF" /><g
       id="g3404"
       style="fill:#FFFFFF" /><g
       id="g3406"
       style="fill:#FFFFFF" /></g></svg>