<svg width="176" height="177" xmlns="http://www.w3.org/2000/svg">
 <g>
  <title>Layer 1</title>
  <path fill-rule="evenodd" fill="#2D2D2D" d="m9.772,176.988998c5.4,0 9.777999,-4.397995 9.777999,-9.832001c0,0 0,-9.994003 0,-9.994003c0,-13.845001 29.274002,-29.331993 68.450001,-29.331993c39.17701,0 68.449997,15.486992 68.449997,29.331993c0,0 0,9.994003 0,9.994003c0,5.434006 4.378998,9.832001 9.778,9.832001c5.401001,0 9.779007,-4.397995 9.779007,-9.832001c0,0 0,-9.994003 0,-9.994003c0,-23.369995 -26.531006,-41.876991 -64.568993,-47.318993c15.280998,-11.510002 25.454994,-34.108002 25.454994,-60.664001c0,-27.104 -21.935005,-49.157 -48.893005,-49.157c-26.957001,0 -48.893002,22.053 -48.893002,49.157c0,26.556 10.175011,49.153999 25.456013,60.664001c-38.039001,5.442001 -64.570011,23.948997 -64.570011,47.318993c0,0 0,9.994003 0,9.994003c0,5.434006 4.379,9.832001 9.779,9.832001zm48.892001,-127.808998c0,-16.264 13.158997,-29.493999 29.335999,-29.493999c16.177002,0 29.335999,13.23 29.335999,29.493999c0,26.641998 -13.435997,49.156998 -29.335999,49.156998c-15.899002,0 -29.335999,-22.514999 -29.335999,-49.156998z" id="svg_2"/>
 </g>
</svg>