<?xml version="1.0"?>
<svg width="16" height="16" xmlns="http://www.w3.org/2000/svg" xmlns:svg="http://www.w3.org/2000/svg" class="bi bi-plus-circle">
 <g class="layer">
  <title>Layer 1</title>
  <path d="m8,15a7,7 0 1 1 0,-14a7,7 0 0 1 0,14m0,1a8,8 0 1 0 0,-16a8,8 0 0 0 0,16" fill="#ffffff" id="svg_1" transform="matrix(1 0 0 1 0 0)"/>
  <path d="m8,4a0.5,0.5 0 0 1 0.5,0.5l0,3l3,0a0.5,0.5 0 0 1 0,1l-3,0l0,3a0.5,0.5 0 0 1 -1,0l0,-3l-3,0a0.5,0.5 0 0 1 0,-1l3,0l0,-3a0.5,0.5 0 0 1 0.5,-0.5" fill="#ffffff" id="svg_2"/>
 </g>
</svg>