<svg width="485.213" height="485.212" xmlns="http://www.w3.org/2000/svg">
 <g>
  <title>Layer 1</title>
  <g id="svg_1">
   <g id="svg_2">
    <path d="m140.05481,63.139381h205.104218v51.276062h25.639313v-51.276062c0,-14.145702 -11.465698,-25.63929 -25.639313,-25.63929h-205.104218c-14.144852,0 -25.639313,11.493587 -25.639313,25.63929v51.276062h25.639313v-51.276062l0,0z" id="svg_3" fill="#ffffff"/>
    <path d="m422.076935,140.053894h-358.936646c-14.144859,0 -25.639297,11.490219 -25.639297,25.636765v128.191391c0,14.172791 11.493599,25.639343 25.639297,25.639343h51.276054v102.552063c0,14.172791 11.493607,25.638489 25.63929,25.638489h205.104248c14.173584,0 25.639313,-11.465698 25.639313,-25.638489v-102.552063h51.27774c14.168518,0 25.635071,-11.466553 25.635071,-25.639343v-128.191391c0,-14.146545 -11.467377,-25.636765 -25.635071,-25.636765zm-76.917908,282.019562h-205.104218v-179.467438h205.104218v179.467438l0,0zm51.277771,-205.104202c-14.17276,0 -25.638458,-11.467392 -25.638458,-25.639282c0,-14.144882 11.465698,-25.639313 25.638458,-25.639313c14.173584,0 25.639313,11.493607 25.639313,25.639313c0.000824,14.171036 -11.465729,25.639282 -25.639313,25.639282z" id="svg_4" fill="#ffffff"/>
    <rect x="165.691569" y="268.242773" width="102.553807" height="25.639297" id="svg_5" fill="#ffffff"/>
    <rect x="165.691569" y="319.521367" width="153.832401" height="25.634225" id="svg_6" fill="#ffffff"/>
    <rect x="165.691569" y="370.799116" width="153.832401" height="25.63507" id="svg_7" fill="#ffffff"/>
   </g>
  </g>
  <g id="svg_8"/>
  <g id="svg_9"/>
  <g id="svg_10"/>
  <g id="svg_11"/>
  <g id="svg_12"/>
  <g id="svg_13"/>
  <g id="svg_14"/>
  <g id="svg_15"/>
  <g id="svg_16"/>
  <g id="svg_17"/>
  <g id="svg_18"/>
  <g id="svg_19"/>
  <g id="svg_20"/>
  <g id="svg_21"/>
  <g id="svg_22"/>
 </g>
</svg>