<svg width="369.793" height="369.792" viewBox="0 0 370 370" preserveAspectRatio="xMidYMid meet" xmlns="http://www.w3.org/2000/svg">
 <g>
  <title>Layer 1</title>
  <g id="svg_1">
   <g id="svg_2">
    <g id="svg_3">
     <path fill="#ffffff" id="svg_4" d="m310.536926,143.800568l-1.625824,-0.579514l-6.349792,-15.157303l0.688568,-1.557426c19.236176,-43.627037 17.909851,-44.928436 14.719208,-48.091324l-25.658997,-25.031418c-1.049072,-1.040741 -2.891144,-1.772774 -4.479065,-1.772774c-1.443726,0 -5.816528,0 -43.713013,17.163918l-1.519501,0.682121l-15.635162,-6.296211l-0.627594,-1.556488c-17.821075,-44.127079 -19.64653,-44.127079 -24.081238,-44.127079h-36.236496c-4.41806,0 -6.430222,0 -22.95546,44.203793l-0.62204,1.609173l-15.553825,6.34058l-1.487167,-0.618347c-25.650681,-10.814102 -40.627754,-16.297867 -44.531914,-16.297867c-1.584221,0 -3.432785,0.71077 -4.486473,1.748741l-25.683022,25.103508c-3.258095,3.21373 -4.609398,4.559486 15.634232,47.276108l0.744049,1.584229l-6.359989,15.140656l-1.556492,0.6017c-45.160422,17.452301 -45.160422,19.153915 -45.160422,23.699524v35.509079c0,4.557617 0,6.450562 45.250079,22.667084l1.617493,0.571198l6.360912,15.096313l-0.683052,1.542633c-19.236156,43.647385 -18.016102,44.828568 -14.741367,48.08577l25.620174,25.065613c1.074013,1.03241 2.932747,1.77002 4.517891,1.77002c1.434486,0 5.797096,0 43.718544,-17.155609l1.518593,-0.710815l15.645332,6.327698l0.60817,1.564789c17.832169,44.112274 19.664124,44.112274 24.101593,44.112274h36.247559c4.551178,0 6.438553,0 22.97673,-44.233337l0.616501,-1.610107l15.578781,-6.298065l1.482529,0.604431c25.62944,10.844604 40.599136,16.317322 44.478348,16.317322c1.570343,0 3.435547,-0.688599 4.506805,-1.749695l25.724609,-25.15802c3.23587,-3.230377 4.584412,-4.551178 -15.695251,-47.227112l-0.754211,-1.602722l6.348907,-15.075043l1.515808,-0.594315c45.232544,-17.543793 45.232544,-19.253708 45.232544,-23.804871v-35.487823c-0.000946,-4.556702 -0.000946,-6.438538 -45.256592,-22.594986zm-125.641357,98.684677c-32.384995,0 -58.730736,-25.84201 -58.730736,-57.582779c0,-31.741684 26.346657,-57.549507 58.730736,-57.549507c32.371124,0 58.71225,25.813347 58.71225,57.549507c0.000931,31.735229 -26.340195,57.582779 -58.71225,57.582779z"/>
    </g>
   </g>
  </g>
  <g id="svg_5"/>
  <g id="svg_6"/>
  <g id="svg_7"/>
  <g id="svg_8"/>
  <g id="svg_9"/>
  <g id="svg_10"/>
  <g id="svg_11"/>
  <g id="svg_12"/>
  <g id="svg_13"/>
  <g id="svg_14"/>
  <g id="svg_15"/>
  <g id="svg_16"/>
  <g id="svg_17"/>
  <g id="svg_18"/>
  <g id="svg_19"/>
 </g>
</svg>