<?xml version="1.0" encoding="UTF-8" standalone="no"?>
<!-- Generator: Adobe Illustrator 19.1.0, SVG Export Plug-In . SVG Version: 6.00 Build 0)  -->

<svg
   xmlns:dc="http://purl.org/dc/elements/1.1/"
   xmlns:cc="http://creativecommons.org/ns#"
   xmlns:rdf="http://www.w3.org/1999/02/22-rdf-syntax-ns#"
   xmlns:svg="http://www.w3.org/2000/svg"
   xmlns="http://www.w3.org/2000/svg"
   xmlns:sodipodi="http://sodipodi.sourceforge.net/DTD/sodipodi-0.dtd"
   xmlns:inkscape="http://www.inkscape.org/namespaces/inkscape"
   version="1.1"
   id="Capa_1"
   x="0px"
   y="0px"
   viewBox="0 0 488.6 488.6"
   style="enable-background:new 0 0 488.6 488.6;"
   xml:space="preserve"
   inkscape:version="0.91 r13725"
   sodipodi:docname="share.svg"><metadata
     id="metadata47"><rdf:RDF><cc:Work
         rdf:about=""><dc:format>image/svg+xml</dc:format><dc:type
           rdf:resource="http://purl.org/dc/dcmitype/StillImage" /></cc:Work></rdf:RDF></metadata><defs
     id="defs45" /><sodipodi:namedview
     pagecolor="#ffffff"
     bordercolor="#666666"
     borderopacity="1"
     objecttolerance="10"
     gridtolerance="10"
     guidetolerance="10"
     inkscape:pageopacity="0"
     inkscape:pageshadow="2"
     inkscape:window-width="2560"
     inkscape:window-height="1416"
     id="namedview43"
     showgrid="false"
     inkscape:zoom="0.48301268"
     inkscape:cx="244.3"
     inkscape:cy="244.3"
     inkscape:window-x="2560"
     inkscape:window-y="24"
     inkscape:window-maximized="1"
     inkscape:current-layer="g5" /><g
     id="g3"><g
       id="g5"><path
         d="m 478.4846,363.56016 c -35.7323,-29.29524 -74.22335,-48.73782 -81.97411,-52.54751 -0.91958,-0.39411 -1.44506,-1.31369 -1.44506,-2.36464 l 0,-55.56899 c 6.96255,-4.59791 11.56046,-12.6114 11.56046,-21.67585 l 0,-57.67089 c 0,-28.63839 -23.25228,-51.89066 -51.89067,-51.89066 l -6.17433,0 -6.17433,0 c -28.6384,0 -51.89067,23.25227 -51.89067,51.89066 l 0,57.67089 c 0,9.06445 4.59791,16.94657 11.56045,21.67585 l 0,55.56899 c 0,0.39411 -0.13137,0.65684 -0.13137,0.91958 10.90361,7.48802 22.3327,15.89562 33.49904,25.09144 13.00551,10.77224 20.49353,26.53649 20.49353,43.61443 l 0,46.37318 132.68246,0 0,-39.542 c 0,-8.27624 -3.67833,-16.28973 -10.1154,-21.54448 z"
         id="path7"
         inkscape:connector-curvature="0"
         style="fill:#ffffff" /><path
         d="m 320.3166,352.91929 c -41.90664,-34.41862 -87.09749,-57.27679 -96.42468,-61.8747 -1.05095,-0.52547 -1.70779,-1.57642 -1.70779,-2.75874 l 0,-65.29028 c 8.27623,-5.51749 13.66235,-14.84467 13.66235,-25.35417 l 0,-67.78629 C 235.84648,96.2247 208.52178,68.9 174.89137,68.9 l -7.22528,0 -7.22528,0 c -33.63041,0 -60.955115,27.3247 -60.955115,60.95511 l 0,67.65492 c 0,10.64087 5.386115,19.96805 13.662355,25.35417 l 0,65.29028 c 0,1.18232 -0.65685,2.23327 -1.7078,2.75875 -9.19581,4.46653 -54.386669,27.3247 -96.424676,61.87469 -7.619389,6.17433 -11.9545585,15.50151 -11.9545585,25.35417 l 0,46.37318 164.6050745,0 164.60507,0 0,-46.37318 c 0,-9.72129 -4.33517,-19.04847 -11.95456,-25.2228 z"
         id="path9"
         inkscape:connector-curvature="0"
         style="fill:#ffffff" /></g></g><g
     id="g13" /><g
     id="g15" /><g
     id="g17" /><g
     id="g19" /><g
     id="g21" /><g
     id="g23" /><g
     id="g25" /><g
     id="g27" /><g
     id="g29" /><g
     id="g31" /><g
     id="g33" /><g
     id="g35" /><g
     id="g37" /><g
     id="g39" /><g
     id="g41" /></svg>