<?xml version="1.0" encoding="iso-8859-1"?>
<!-- Generator: Adobe Illustrator 19.0.0, SVG Export Plug-In . SVG Version: 6.00 Build 0)  -->
<svg xmlns="http://www.w3.org/2000/svg" xmlns:xlink="http://www.w3.org/1999/xlink" version="1.1" id="Capa_1" x="0px" y="0px" viewBox="0 0 512 512" style="enable-background:new 0 0 512 512;" xml:space="preserve" width="512px" height="512px">
<g>
	<g>
		<path d="M511.832,249.19c1.535-23.255-7.485-45.571-24.748-61.229c-13.991-12.69-31.808-19.469-50.028-19.688    c2.325-13.932,1.099-28.388-3.816-42.141c-8.697-24.338-27.72-43.065-52.19-51.381c-16.009-5.441-32.947-5.926-48.933-1.603    c-1.997-3.329-4.217-6.554-6.672-9.647c-16.917-21.32-42.23-33.548-69.447-33.548s-52.53,12.228-69.447,33.548    c-2.454,3.093-4.675,6.318-6.672,9.647c-15.986-4.324-32.925-3.839-48.934,1.603c-24.471,8.315-43.493,27.043-52.19,51.381    c-4.914,13.752-6.141,28.208-3.816,42.14c-18.22,0.22-36.036,6.999-50.028,19.689c-17.26,15.657-26.28,37.974-24.746,61.229    c1.305,19.781,10.097,37.883,24.494,51.008c-1.113,1.555-2.169,3.159-3.149,4.828c-9.729,16.564-11.335,36.341-4.406,54.258    c6.928,17.918,21.422,31.469,39.765,37.18l63.282,19.699c-6.636,7.197-10.357,16.595-10.357,26.578    c0,12.063,5.419,23.282,14.869,30.78c7.043,5.589,15.589,8.527,24.349,8.527c2.994,0,6.014-0.344,9.006-1.042l86.781-20.25H267.2    l86.781,20.25c2.993,0.698,6.012,1.042,9.006,1.042c8.76,0,17.307-2.939,24.349-8.527c9.449-7.498,14.869-18.718,14.869-30.78    c0-9.983-3.721-19.381-10.357-26.578l63.282-19.699c18.342-5.711,32.836-19.262,39.765-37.179    c6.929-17.918,5.323-37.694-4.406-54.26c-0.98-1.668-2.036-3.273-3.149-4.827C501.735,287.073,510.527,268.971,511.832,249.19z     M65.788,367.818c-9.548-2.973-17.093-10.028-20.7-19.355c-3.607-9.327-2.771-19.623,2.293-28.246    c0.486-0.827,1.008-1.621,1.554-2.393l117.743,81.399L65.788,367.818z M151.202,451.79c-3.807,0.887-6.576-0.729-7.89-1.771    c-1.313-1.043-3.517-3.374-3.517-7.28c0-3.907,2.204-6.238,3.517-7.281c1.047-0.831,3.022-2.027,5.709-2.027    c0.682,0,1.41,0.077,2.18,0.257l38.789,9.052L151.202,451.79z M49.807,281.956c-11.594-8.015-18.776-20.679-19.704-34.742    c-0.928-14.064,4.527-27.562,14.967-37.032c11.446-10.381,27.13-14.202,41.936-10.523l118.046,189.623L49.807,281.956z     M112.034,183.099c-8.792-14.122-10.624-31.206-5.025-46.872c5.598-15.665,17.841-27.719,33.593-33.071    c9.277-3.152,19.034-3.727,28.386-1.787c-2.409,12.176-2.24,24.884,0.677,37.386l51.104,219.008L112.034,183.099z M256,376.73    l-57.12-244.791c-4.092-17.536-0.019-35.684,11.173-49.79c11.193-14.105,27.94-22.195,45.947-22.195s34.754,8.09,45.947,22.195    c11.193,14.106,15.266,32.254,11.174,49.79L256,376.73z M342.335,138.755c2.918-12.503,3.086-25.211,0.677-37.387    c9.353-1.94,19.11-1.365,28.388,1.788c15.75,5.353,27.994,17.406,33.592,33.071c5.598,15.666,3.766,32.75-5.025,46.872    L291.231,357.763L342.335,138.755z M368.688,450.02c-1.314,1.042-4.087,2.656-7.89,1.771l-38.789-9.051l38.789-9.052    c3.803-0.89,6.575,0.729,7.889,1.771c1.313,1.043,3.517,3.374,3.517,7.281C372.204,446.646,370.001,448.977,368.688,450.02z     M466.913,348.463c-3.606,9.327-11.152,16.382-20.701,19.354l-100.89,31.406l117.743-81.399c0.546,0.772,1.069,1.567,1.554,2.394    C469.684,328.841,470.52,339.136,466.913,348.463z M481.898,247.214c-0.928,14.063-8.11,26.728-19.704,34.742L306.948,389.281    l118.046-189.622c14.806-3.679,30.49,0.142,41.935,10.522C477.37,219.652,482.826,233.15,481.898,247.214z" fill="#FFFFFF"/>
	</g>
</g>
<g>
</g>
<g>
</g>
<g>
</g>
<g>
</g>
<g>
</g>
<g>
</g>
<g>
</g>
<g>
</g>
<g>
</g>
<g>
</g>
<g>
</g>
<g>
</g>
<g>
</g>
<g>
</g>
<g>
</g>
</svg>
