<?xml version="1.0" encoding="UTF-8" standalone="no"?>
<!-- Generated by IcoMoon.io -->

<svg
   xmlns:dc="http://purl.org/dc/elements/1.1/"
   xmlns:cc="http://creativecommons.org/ns#"
   xmlns:rdf="http://www.w3.org/1999/02/22-rdf-syntax-ns#"
   xmlns:svg="http://www.w3.org/2000/svg"
   xmlns="http://www.w3.org/2000/svg"
   xmlns:sodipodi="http://sodipodi.sourceforge.net/DTD/sodipodi-0.dtd"
   xmlns:inkscape="http://www.inkscape.org/namespaces/inkscape"
   version="1.1"
   width="512px"
   height="512px"
   viewBox="0 0 16 16"
   id="svg2"
   inkscape:version="0.91 r13725"
   sodipodi:docname="support.svg">
  <metadata
     id="metadata10">
    <rdf:RDF>
      <cc:Work
         rdf:about="">
        <dc:format>image/svg+xml</dc:format>
        <dc:type
           rdf:resource="http://purl.org/dc/dcmitype/StillImage" />
      </cc:Work>
    </rdf:RDF>
  </metadata>
  <defs
     id="defs8" />
  <sodipodi:namedview
     pagecolor="#ffffff"
     bordercolor="#666666"
     borderopacity="1"
     objecttolerance="10"
     gridtolerance="10"
     guidetolerance="10"
     inkscape:pageopacity="0"
     inkscape:pageshadow="2"
     inkscape:window-width="1215"
     inkscape:window-height="1000"
     id="namedview6"
     showgrid="false"
     inkscape:zoom="0.4609375"
     inkscape:cx="-65.084746"
     inkscape:cy="256"
     inkscape:window-x="65"
     inkscape:window-y="24"
     inkscape:window-maximized="1"
     inkscape:current-layer="svg2" />
  <path
     d="M8 0c-4.4 0-8 3.6-8 8s3.6 8 8 8 8-3.6 8-8-3.6-8-8-8zM4 8c0-2.2 1.8-4 4-4s4 1.8 4 4c0 2.2-1.8 4-4 4s-4-1.8-4-4zM12.6 9.8c0.3-0.5 0.4-1.2 0.4-1.8s-0.1-1.3-0.4-1.8l1.5-1.5c0.6 1 0.9 2.1 0.9 3.3s-0.3 2.3-0.8 3.3l-1.6-1.5zM11.3 1.8l-1.5 1.6c-0.5-0.3-1.2-0.4-1.8-0.4s-1.3 0.1-1.8 0.4l-1.5-1.6c1-0.5 2.1-0.8 3.3-0.8s2.3 0.3 3.3 0.8zM1.8 4.7l1.5 1.5c-0.2 0.5-0.3 1.2-0.3 1.8s0.1 1.3 0.4 1.8l-1.5 1.5c-0.6-1-0.9-2.1-0.9-3.3s0.3-2.3 0.8-3.3zM4.7 14.2l1.5-1.5c0.5 0.2 1.2 0.3 1.8 0.3s1.3-0.1 1.8-0.4l1.5 1.5c-1 0.6-2.1 0.9-3.3 0.9s-2.3-0.3-3.3-0.8z"
     id="path4"
     style="fill:#ffffff;fill-opacity:1"
     fill="#FFFFFF" />
  <path
     style="opacity:1;fill:#ffff00;fill-opacity:0"
     d="M 207.18644,505.94024 C 95.755192,483.34956 11.929736,389.92683 2.4450169,277.7577 -8.0885968,153.18404 71.675557,41.322171 194.16949,8.8818111 277.55433,-13.201196 372.65796,13.019905 434.99986,75.281356 c 54.11747,54.047624 80.41314,125.244014 74.519,201.762714 -7.5684,98.25466 -74.34364,184.84673 -168.90869,219.03557 -39.33253,14.22019 -92.52766,18.15155 -133.42373,9.8606 z m 91.75248,-29.49437 c 18.36891,-3.78498 45.11914,-13.49881 56.65072,-20.57159 l 7.38623,-4.53029 -24.4672,-24.53682 -24.46718,-24.5368 -8.95295,3.94982 c -21.69632,9.57184 -63.71833,10.88998 -94.37325,2.96025 l -13.82708,-3.57675 -24.13902,24.1787 c -19.47884,19.51084 -23.51077,24.58602 -20.88478,26.28864 7.63313,4.94911 39.36741,15.9734 56.40678,19.59537 24.05239,5.11269 67.81249,5.48888 90.66773,0.77947 z m -13.10067,-95.27491 c 45.37546,-10.69846 83.29522,-48.37213 95.11105,-94.49379 4.85741,-18.96033 3.32722,-54.45964 -3.12085,-72.40117 -14.43155,-40.15536 -46.93686,-70.65667 -88.20133,-82.76361 -17.42147,-5.11143 -49.83277,-5.11143 -67.25424,0 -41.07755,12.05209 -73.61269,42.55871 -88.26691,82.76361 -6.42518,17.62791 -7.92229,53.30362 -3.04992,72.6787 11.18274,44.46843 50.0708,83.4568 93.80079,94.04275 16.79063,4.0646 44.148,4.14244 60.98141,0.17355 l 0,-4e-5 z m -200.220261,-42.21921 23.713481,-23.78724 -5.3098,-14.72124 c -4.728872,-13.11063 -5.302707,-18.16294 -5.244918,-46.17886 0.0493,-23.89938 1.00019,-34.53785 3.957628,-44.27763 l 3.89275,-12.82 L 83.181071,173.6478 C 70.285739,160.71236 58.932439,150.12881 57.951512,150.12881 c -2.656957,0 -11.842161,21.90081 -17.782647,42.40019 -11.465796,39.56607 -11.77164,85.9033 -0.806669,122.21452 4.671192,15.46897 19.052188,47.99546 21.220308,47.99546 0.727101,0 11.993071,-10.70425 25.035485,-23.78723 z m 383.041101,-9.98463 c 15.94242,-47.1639 15.77826,-103.82258 -0.42023,-145.03759 -5.8681,-14.93069 -15.26456,-33.80072 -16.83128,-33.80072 -0.72164,0 -12.00807,10.72925 -25.08093,23.84277 l -23.76882,23.84277 2.8774,7.07249 c 10.66457,26.21291 11.88319,71.38411 2.57677,95.51447 -2.65357,6.88039 -4.50454,13.31925 -4.11325,14.30856 0.39127,0.98931 11.89187,12.25021 25.55687,25.02424 l 24.84545,23.22549 4.20348,-8.19343 c 2.31189,-4.50638 6.88145,-16.11594 10.15454,-25.79905 z M 210.44068,104.08477 c 10.45669,-4.225294 15.95633,-4.82878 44.47457,-4.880262 28.68893,-0.05179 34.14758,0.532925 46.09825,4.937902 l 13.55589,4.99664 18.1499,-19.098337 c 9.98244,-10.504088 20.81916,-22.282403 24.0816,-26.174037 l 5.93171,-7.075697 -11.60359,-5.084926 c -33.41145,-14.641564 -58.49632,-19.74101 -96.21376,-19.559076 -33.46694,0.161429 -49.44965,2.939917 -79.53798,13.827147 -29.63881,10.724576 -29.4727,8.215674 -2.47629,37.401709 12.8909,13.93646 23.92614,25.382087 24.52275,25.434737 0.59661,0.0526 6.45424,-2.07396 13.01695,-4.7258 z"
     id="path4152"
     inkscape:connector-curvature="0"
     transform="scale(0.03125,0.03125)" />
  <path
     style="opacity:1;fill:#ffff00;fill-opacity:0"
     d="M 207.18644,505.94024 C 95.755192,483.34956 11.929736,389.92683 2.4450169,277.7577 -8.0885968,153.18404 71.675557,41.322171 194.16949,8.8818111 277.55433,-13.201196 372.65796,13.019905 434.99986,75.281356 c 54.11747,54.047624 80.41314,125.244014 74.519,201.762714 -7.5684,98.25466 -74.34364,184.84673 -168.90869,219.03557 -39.33253,14.22019 -92.52766,18.15155 -133.42373,9.8606 z m 91.75248,-29.49437 c 18.36891,-3.78498 45.11914,-13.49881 56.65072,-20.57159 l 7.38623,-4.53029 -24.4672,-24.53682 -24.46718,-24.5368 -8.95295,3.94982 c -21.69632,9.57184 -63.71833,10.88998 -94.37325,2.96025 l -13.82708,-3.57675 -24.13902,24.1787 c -19.47884,19.51084 -23.51077,24.58602 -20.88478,26.28864 7.63313,4.94911 39.36741,15.9734 56.40678,19.59537 24.05239,5.11269 67.81249,5.48888 90.66773,0.77947 z m -13.10067,-95.27491 c 45.37546,-10.69846 83.29522,-48.37213 95.11105,-94.49379 4.85741,-18.96033 3.32722,-54.45964 -3.12085,-72.40117 -14.43155,-40.15536 -46.93686,-70.65667 -88.20133,-82.76361 -17.42147,-5.11143 -49.83277,-5.11143 -67.25424,0 -41.07755,12.05209 -73.61269,42.55871 -88.26691,82.76361 -6.42518,17.62791 -7.92229,53.30362 -3.04992,72.6787 11.18274,44.46843 50.0708,83.4568 93.80079,94.04275 16.79063,4.0646 44.148,4.14244 60.98141,0.17355 l 0,-4e-5 z m -200.220261,-42.21921 23.713481,-23.78724 -5.3098,-14.72124 c -4.728872,-13.11063 -5.302707,-18.16294 -5.244918,-46.17886 0.0493,-23.89938 1.00019,-34.53785 3.957628,-44.27763 l 3.89275,-12.82 L 83.181071,173.6478 C 70.285739,160.71236 58.932439,150.12881 57.951512,150.12881 c -2.656957,0 -11.842161,21.90081 -17.782647,42.40019 -11.465796,39.56607 -11.77164,85.9033 -0.806669,122.21452 4.671192,15.46897 19.052188,47.99546 21.220308,47.99546 0.727101,0 11.993071,-10.70425 25.035485,-23.78723 z m 383.041101,-9.98463 c 15.94242,-47.1639 15.77826,-103.82258 -0.42023,-145.03759 -5.8681,-14.93069 -15.26456,-33.80072 -16.83128,-33.80072 -0.72164,0 -12.00807,10.72925 -25.08093,23.84277 l -23.76882,23.84277 2.8774,7.07249 c 10.66457,26.21291 11.88319,71.38411 2.57677,95.51447 -2.65357,6.88039 -4.50454,13.31925 -4.11325,14.30856 0.39127,0.98931 11.89187,12.25021 25.55687,25.02424 l 24.84545,23.22549 4.20348,-8.19343 c 2.31189,-4.50638 6.88145,-16.11594 10.15454,-25.79905 z M 210.44068,104.08477 c 10.45669,-4.225294 15.95633,-4.82878 44.47457,-4.880262 28.68893,-0.05179 34.14758,0.532925 46.09825,4.937902 l 13.55589,4.99664 18.1499,-19.098337 c 9.98244,-10.504088 20.81916,-22.282403 24.0816,-26.174037 l 5.93171,-7.075697 -11.60359,-5.084926 c -33.41145,-14.641564 -58.49632,-19.74101 -96.21376,-19.559076 -33.46694,0.161429 -49.44965,2.939917 -79.53798,13.827147 -29.63881,10.724576 -29.4727,8.215674 -2.47629,37.401709 12.8909,13.93646 23.92614,25.382087 24.52275,25.434737 0.59661,0.0526 6.45424,-2.07396 13.01695,-4.7258 z"
     id="path4154"
     inkscape:connector-curvature="0"
     transform="scale(0.03125,0.03125)" />
  <path
     style="opacity:1;fill:#ccc8c5;fill-opacity:1"
     d="M 224.85683,378.82795 C 171.1192,365.8194 129.8844,313.35027 129.62824,257.65451 c -0.1565,-34.02821 10.81626,-62.30725 33.79304,-87.09152 41.46867,-44.73086 105.24501,-54.13742 157.40174,-23.21565 27.46121,16.28074 51.70425,49.4711 58.88319,80.61511 3.71449,16.11437 3.14218,45.53819 -1.1766,60.49215 -12.83187,44.43085 -49.53247,80.37419 -92.38043,90.47434 -17.11479,4.0343 -44.39535,3.98935 -61.29235,-0.10088 l 0,-1.1e-4 z"
     id="path4160"
     inkscape:connector-curvature="0"
     transform="scale(0.03125,0.03125)" />
  <path
     style="opacity:1;fill:#ff3535;fill-opacity:1"
     d="m 233.14633,477.60717 c -9.58647,-0.93121 -23.7424,-3.32498 -31.45763,-5.31949 -17.12104,-4.42606 -47.6548,-16.01307 -47.6548,-18.08413 0,-0.82951 10.0607,-11.53465 22.3571,-23.78921 l 22.35711,-22.28102 12.89713,3.41147 c 29.34104,7.76112 71.96216,6.32181 93.44437,-3.15559 l 8.95402,-3.95028 23.32217,23.39471 23.32217,23.39471 -16.43423,7.79872 c -21.11447,10.01968 -42.88524,15.92079 -68.72832,18.62925 -11.33559,1.18801 -21.58644,2.04391 -22.77966,1.902 -1.19322,-0.14191 -10.01296,-1.01993 -19.59943,-1.95114 z"
     id="path4162"
     inkscape:connector-curvature="0"
     transform="scale(0.03125,0.03125)" />
  <path
     style="opacity:1;fill:#ff3535;fill-opacity:1"
     d="m 428.68146,336.05184 -23.65752,-22.25106 5.10809,-12.95463 c 4.51845,-11.45924 5.11587,-16.58586 5.17543,-44.41225 0.0594,-27.75984 -0.53235,-33.08303 -5.0342,-45.28512 l -5.10154,-13.82748 22.96805,-22.96804 22.96804,-22.96805 8.72643,18.62172 c 13.27257,28.32292 18.24747,51.55001 18.27906,85.34222 0.0145,15.51187 -1.20412,34.06102 -2.70803,41.22034 -4.87322,23.19875 -18.46955,61.89751 -21.70633,61.78196 -0.74798,-0.0267 -12.00584,-10.06152 -25.01748,-22.29961 z"
     id="path4164"
     inkscape:connector-curvature="0"
     transform="scale(0.03125,0.03125)" />
  <path
     style="opacity:1;fill:#ff3535;fill-opacity:1"
     d="M 175.06304,82.332203 C 148.83288,54.28823 148.3653,57.637448 180.0678,46.483869 c 49.64324,-17.465495 102.22116,-17.465495 151.8644,0 31.77483,11.179025 31.33052,7.797777 4.72202,35.934984 l -23.16269,24.493427 -11.93221,-4.93111 C 290.90459,97.577997 286.02696,97.050069 256,97.050069 c -29.78488,0 -34.99049,0.553402 -45.55932,4.843361 -6.56271,2.66385 -12.07108,4.84386 -12.24082,4.84446 -0.16974,6e-4 -10.58131,-10.981958 -23.13682,-24.405687 z"
     id="path4166"
     inkscape:connector-curvature="0"
     transform="scale(0.03125,0.03125)" />
  <path
     style="opacity:1;fill:#ff3232;fill-opacity:1"
     d="M 56.570333,351.69841 C 50.75635,342.2143 44.153695,324.75252 38.596124,304.16271 35.218234,291.64823 34.17276,280.879 34.067931,257.51864 33.909745,222.2678 37.3748,203.09852 49.468766,172.3186 l 7.903648,-20.1153 23.261911,23.36954 23.261915,23.36953 -3.50566,11.93221 c -2.519255,8.57477 -3.529129,21.08883 -3.589064,44.47457 -0.07457,29.09199 0.452159,33.89387 4.967754,45.28904 l 5.05117,12.74666 -22.856835,22.85683 -22.85683,22.85683 -4.536442,-7.4001 z"
     id="path4168"
     inkscape:connector-curvature="0"
     transform="scale(0.03125,0.03125)" />
</svg>
