<?xml version="1.0" encoding="UTF-8" standalone="no"?>
<svg
   xmlns:dc="http://purl.org/dc/elements/1.1/"
   xmlns:cc="http://creativecommons.org/ns#"
   xmlns:rdf="http://www.w3.org/1999/02/22-rdf-syntax-ns#"
   xmlns:svg="http://www.w3.org/2000/svg"
   xmlns="http://www.w3.org/2000/svg"
   xmlns:sodipodi="http://sodipodi.sourceforge.net/DTD/sodipodi-0.dtd"
   xmlns:inkscape="http://www.inkscape.org/namespaces/inkscape"
   version="1.0"
   width="1000.000000pt"
   height="1000.000000pt"
   viewBox="0 0 1000.000000 1000.000000"
   preserveAspectRatio="xMidYMid meet"
   id="svg4198"
   inkscape:version="0.91 r13725"
   sodipodi:docname="upload.svg">
  <defs
     id="defs4208" />
  <sodipodi:namedview
     pagecolor="#ffffff"
     bordercolor="#666666"
     borderopacity="1"
     objecttolerance="10"
     gridtolerance="10"
     guidetolerance="10"
     inkscape:pageopacity="0"
     inkscape:pageshadow="2"
     inkscape:window-width="1615"
     inkscape:window-height="1026"
     id="namedview4206"
     showgrid="false"
     inkscape:zoom="0.1888"
     inkscape:cx="625"
     inkscape:cy="625"
     inkscape:window-x="65"
     inkscape:window-y="24"
     inkscape:window-maximized="1"
     inkscape:current-layer="svg4198" />
  <metadata
     id="metadata4200">
Created by potrace 1.13, written by Peter Selinger 2001-2015
<rdf:RDF>
  <cc:Work
     rdf:about="">
    <dc:format>image/svg+xml</dc:format>
    <dc:type
       rdf:resource="http://purl.org/dc/dcmitype/StillImage" />
  </cc:Work>
</rdf:RDF>
</metadata>
  <g
     transform="matrix(-0.11297638,0,0,-0.10741601,1064.8819,1038.931)"
     id="g4202"
     style="fill:#ffffff;stroke:none">
    <path
       d="m 4833,9235 c -157,-28 -320,-101 -440,-196 -32,-25 -863,-831 -1848,-1790 L 755,5505 l 1123,-3 1122,-2 0,-1785 c 0,-1952 -3,-1858 57,-1999 75,-179 230,-334 408,-409 140,-59 93,-57 1535,-57 1442,0 1395,-2 1535,57 178,75 333,230 408,409 60,141 57,47 57,1999 l 0,1785 1122,2 1123,3 -1790,1744 c -985,959 -1816,1765 -1848,1790 -213,168 -511,244 -774,196 z"
       id="path4204"
       inkscape:connector-curvature="0"
       style="fill:#ffffff" />
  </g>
</svg>
