<svg width="999.9999999999999" height="999.9999999999999" viewBox="0 0 1000 1000" xmlns="http://www.w3.org/2000/svg" preserveAspectRatio="xMidYMid meet">
 <metadata>Created by potrace 1.13, written by Peter Selinger 2001-2015</metadata>
 <g>
  <title>Layer 1</title>
  <g id="svg_7" fill="#FFFFFF000" transform="translate(0,1000) scale(0.10000000149011612,-0.10000000149011612) ">
   <path fill="#ffffff" id="svg_8" d="m4375,7750l-1120,-998l-1152,-1c-800,-1 -1168,-4 -1205,-12c-187,-39 -348,-200 -387,-387c-16,-75 -16,-2629 0,-2704c39,-187 200,-348 387,-387c37,-8 402,-11 1203,-11l1149,0l1125,-1000l1125,-1000l0,3750c0,2062 -1,3750 -2,3749c-2,0 -507,-450 -1123,-999z"/>
   <path fill="#ffffff" id="svg_9" d="m8074,7784c-142,-124 -267,-234 -278,-244c-18,-18 -16,-21 60,-112c429,-506 712,-1099 829,-1736c48,-260 59,-388 59,-692c0,-304 -11,-432 -59,-692c-117,-637 -400,-1230 -829,-1736c-76,-91 -78,-94 -60,-112c54,-52 538,-470 544,-470c10,0 173,196 267,321c381,506 662,1124 792,1744c75,353 95,556 95,945c0,390 -20,592 -96,950c-129,615 -411,1235 -791,1739c-94,125 -257,321 -267,321c-4,0 -124,-102 -266,-226z"/>
   <path fill="#ffffff" id="svg_10" d="m7120,6949c-151,-132 -276,-244 -278,-248c-1,-3 21,-33 49,-66c260,-303 448,-668 539,-1050c52,-218 64,-328 64,-585c0,-257 -12,-367 -64,-585c-91,-380 -287,-763 -538,-1049c-29,-33 -51,-63 -50,-67c2,-4 120,-110 263,-234c143,-125 268,-234 277,-242c15,-13 20,-11 55,27c130,144 297,381 407,577c200,355 334,778 388,1223c17,136 17,564 0,700c-67,545 -235,1009 -528,1450c-93,140 -290,391 -306,390c-2,0 -127,-109 -278,-241z"/>
   <path fill="#ffffff" id="svg_11" d="m6178,6126c-152,-132 -277,-244 -277,-249c-1,-4 26,-40 60,-80c383,-456 383,-1138 0,-1594c-34,-40 -61,-76 -60,-80c0,-5 87,-83 192,-175c106,-91 231,-200 279,-242l87,-77l67,78c252,295 423,697 464,1093c53,515 -108,1052 -437,1460c-103,127 -58,143 -375,-134z"/>
  </g>
 </g>
</svg>