<?xml version="1.0" encoding="iso-8859-1"?>
<svg xmlns="http://www.w3.org/2000/svg" xmlns:xlink="http://www.w3.org/1999/xlink" version="1.1" viewBox="0 0 8.531 8.531" enable-background="new 0 0 8.531 8.531" width="512px" height="512px">
  <g>
    <g>
      <path fill="#FFFFFF" d="m2.144,6.012c-0.398,0-0.72,0.322-0.72,0.72 0,0.397-0.322,0.721-0.72,0.721-0.347,8.88178e-16-0.636-0.247-0.704-0.573 0.075,0.722 0.675,1.288 1.417,1.292 0.795,0.004 1.443-0.637 1.447-1.432 0-0.001 0-0.003 0-0.004 0-0.001 0-0.003 0-0.004 0-0.398-0.322-0.72-0.72-0.72zm6.344-5.551c-0.004-0.005-0.006-0.009-0.009-0.014-0.001-0.001-0.002-0.002-0.002-0.003-0.005-0.005-0.011-0.01-0.016-0.015-0.005-0.005-0.009-0.011-0.015-0.015-0.001-0.001-0.002-0.001-0.003-0.002-0.004-0.003-0.009-0.006-0.013-0.009-0.093-0.065-0.218-0.057-0.301,0.02l-4.24,3.561c-0.003,0.003-0.006,0.006-0.01,0.01 0,0.001-0.002,0.001-0.003,0.003l-1.187,1.186c-0.094,0.094-0.094,0.246 0,0.34l.679,.679c0.094,0.094 0.246,0.094 0.339,0l1.188-1.188c0.001-0.001 0.001-0.003 0.003-0.004 0.002-0.003 0.006-0.006 0.009-0.009l3.56-4.24c0.077-0.082 0.086-0.208 0.021-0.3zm-4.951,5.232l-.339-.34 .849-.849 .339,.34-.849,.849zm1.173-1.203l-.309-.31 1.929-1.62-1.62,1.93z"/>
    </g>
  </g>
</svg>
