<?xml version="1.0" encoding="iso-8859-1"?>
<!-- Generator: Adobe Illustrator 16.0.0, SVG Export Plug-In . SVG Version: 6.00 Build 0)  -->
<!DOCTYPE svg PUBLIC "-//W3C//DTD SVG 1.1//EN" "http://www.w3.org/Graphics/SVG/1.1/DTD/svg11.dtd">
<svg xmlns="http://www.w3.org/2000/svg" xmlns:xlink="http://www.w3.org/1999/xlink" version="1.1" id="Capa_1" x="0px" y="0px" width="512px" height="512px" viewBox="0 0 612.387 612.387" style="enable-background:new 0 0 612.387 612.387;" xml:space="preserve">
<g>
	<g id="Shape_356">
		<g>
			<path d="M601.516,373.955c-29.709-109.834-112.202-183.351-184.27-164.222c-27.423,7.274-71.588,25.699-102.714,27.8v-30.677     h-0.082c0.021-1.775,0.082-3.346,0.082-5.183c0-31.443-25.271-56.876-56.438-56.876h-82.085     c-19.833,0-35.912-16.211-35.912-36.197c0-20.006,16.079-36.197,35.912-36.197h117.997c11.334,0,20.527-9.274,20.527-20.7V10.334     C314.533,4.621,309.942,0,304.269,0c-5.662,0-10.263,4.631-10.263,10.334v20.7c0,20.496-0.836,20.68-20.526,20.68h-97.48     c-31.167,0-56.438,25.444-56.438,56.897c0,31.412,25.271,56.876,56.438,56.876h82.085c19.833,0,35.911,16.211,35.911,36.197     c0,1.836,0.071,3.397,0.092,5.183h-0.092v30.841c-30.718-2.173-74.261-20.639-101.296-27.954     c-71.159-19.2-152.623,54.672-181.964,165.018c-29.331,110.314,4.571,215.365,75.73,234.586     c53.091,14.323,111.845-23.261,150.48-89.054c21.343,4.54,43.849,7.151,67.313,7.151c23.76,0,46.552-4.162,68.16-8.661     c39.125,65.487,98.613,102.897,152.378,88.625C596.884,588.29,631.224,483.76,601.516,373.955z M519.451,587.525     c-48.123,12.772-102.479-26.393-136.422-92.022c-6.825,1.744-13.793,3.254-20.924,4.57h0.01     c-18.415,3.366-37.768,6.692-57.825,6.692c-19.802,0-38.911-1.888-57.101-5.284c0-0.021,0.01-0.021,0.01-0.021     c-7.039-1.296-13.936-2.816-20.669-4.571c-33.524,65.946-87.197,105.316-134.718,92.482     C31.599,573.089,4.187,479.394,30.589,380.097c23.516-88.482,81.8-151.388,136.809-152.612     c26.097,2.632,85.708,31.075,136.891,31.075v-0.234c51.826,0,112.191-28.291,138.625-30.912     c55.714,1.214,114.723,63.813,138.544,151.868C608.178,478.098,580.418,571.345,519.451,587.525z M406.891,403.338     c-16.996,0-30.779,13.895-30.779,31.014c0,17.16,13.783,31.055,30.779,31.055c16.997,0,30.78-13.895,30.78-31.055     C437.671,417.243,423.888,403.338,406.891,403.338z M406.891,444.717c-5.662,0-10.263-4.621-10.263-10.354     c0-5.693,4.591-10.325,10.263-10.325c5.662,0,10.264,4.632,10.264,10.325C417.155,440.085,412.553,444.717,406.891,444.717z      M499.241,424.037c-16.997,0-30.78,13.885-30.78,31.015c0,17.14,13.783,31.014,30.78,31.014     c17.007,0,30.779-13.885,30.779-31.014C530.02,437.922,516.237,424.037,499.241,424.037z M499.241,465.406     c-5.662,0-10.264-4.621-10.264-10.354c0-5.693,4.591-10.335,10.264-10.335c5.672,0,10.263,4.642,10.263,10.335     C509.494,460.785,504.903,465.406,499.241,465.406z M201.677,372.323h-41.042v-41.359c0-5.713-4.591-10.375-10.263-10.375     c-5.672,0-10.264,4.662-10.264,10.375v41.359H99.065c-5.672,0-10.263,4.621-10.263,10.335c0,5.713,4.591,10.334,10.263,10.334     h41.042v41.359c0,5.733,4.591,10.355,10.264,10.355c5.662,0,10.263-4.622,10.263-10.355v-41.359h41.042     c5.662,0,10.264-4.621,10.264-10.334C211.941,376.944,207.339,372.323,201.677,372.323z M499.241,330.964     c-16.997,0-30.78,13.886-30.78,31.004c0,17.14,13.783,31.035,30.78,31.035c17.007,0,30.779-13.896,30.779-31.035     C530.02,344.849,516.237,330.964,499.241,330.964z M499.241,372.323c-5.662,0-10.264-4.642-10.264-10.355     c0-5.692,4.591-10.324,10.264-10.324c5.672,0,10.263,4.632,10.263,10.324C509.494,367.682,504.903,372.323,499.241,372.323z      M406.891,310.254c-16.996,0-30.779,13.916-30.779,31.035c0,17.139,13.783,31.034,30.779,31.034     c16.997,0,30.78-13.896,30.78-31.034C437.671,324.17,423.888,310.254,406.891,310.254z M406.891,351.644     c-5.662,0-10.263-4.621-10.263-10.354c0-5.714,4.591-10.325,10.263-10.325c5.662,0,10.264,4.611,10.264,10.325     C417.155,347.012,412.553,351.644,406.891,351.644z" fill="#FFFFFF"/>
		</g>
	</g>
</g>
<g>
</g>
<g>
</g>
<g>
</g>
<g>
</g>
<g>
</g>
<g>
</g>
<g>
</g>
<g>
</g>
<g>
</g>
<g>
</g>
<g>
</g>
<g>
</g>
<g>
</g>
<g>
</g>
<g>
</g>
</svg>
