<?xml version="1.0" encoding="iso-8859-1"?>
<!-- Generator: Adobe Illustrator 19.0.0, SVG Export Plug-In . SVG Version: 6.00 Build 0)  -->
<svg version="1.1" id="Layer_1" xmlns="http://www.w3.org/2000/svg" xmlns:xlink="http://www.w3.org/1999/xlink" x="0px" y="0px"
	 viewBox="0 0 512 512" style="enable-background:new 0 0 512 512;" xml:space="preserve">
<rect y="99.056" style="fill:#CCCCCC;" width="512" height="368.08"/>
<rect x="16" y="115.104" style="fill:#F2F2F2;" width="480" height="336"/>
<path d="M512,99.056v-25.44c0-15.816-12.936-28.752-28.752-28.752h-368.24H28.752C12.936,44.864,0,57.8,0,73.616v25.432h512V99.056z
	"/>
<g style="opacity:0.25;">
	<path style="fill:#FFFFFF;" d="M147.032,44.864h-32.024H28.752C12.936,44.864,0,57.8,0,73.616v25.432h115.888L147.032,44.864z"/>
</g>
<circle style="fill:#FFFFFF;" cx="40.536" cy="71.96" r="8.184"/>
<circle style="fill:#848484;" cx="65.096" cy="71.96" r="8.184"/>
<g>
	<circle style="fill:#FFFFFF;" cx="89.648" cy="71.96" r="8.184"/>
	<path style="fill:#FFFFFF;" d="M428.256,86.336H170.88c-7.904,0-14.376-6.472-14.376-14.376l0,0
		c0-7.904,6.472-14.376,14.376-14.376h257.376c7.904,0,14.376,6.472,14.376,14.376l0,0C442.632,79.864,436.16,86.336,428.256,86.336
		z"/>
</g>
<path d="M180.576,65.4l1.968,7.56c0.432,1.672,0.832,3.2,1.112,4.752h0.096c0.336-1.512,0.832-3.112,1.32-4.72l2.432-7.592h2.28
	l2.304,7.456c0.552,1.784,0.984,3.344,1.32,4.856h0.096c0.24-1.512,0.648-3.08,1.144-4.832l2.12-7.488h2.68l-4.8,14.888h-2.464
	l-2.288-7.096c-0.52-1.656-0.952-3.144-1.32-4.888h-0.064c-0.368,1.784-0.832,3.328-1.352,4.92l-2.4,7.08h-2.464L177.8,65.408h2.776
	V65.4z"/>
<path d="M203.544,65.4l1.968,7.56c0.432,1.672,0.832,3.2,1.112,4.752h0.096c0.336-1.512,0.832-3.112,1.32-4.72l2.432-7.592h2.28
	l2.304,7.456c0.552,1.784,0.984,3.344,1.32,4.856h0.096c0.24-1.512,0.648-3.08,1.144-4.832l2.12-7.488h2.68l-4.8,14.888h-2.464
	l-2.288-7.096c-0.52-1.656-0.952-3.144-1.32-4.888h-0.064c-0.368,1.784-0.832,3.328-1.352,4.92l-2.4,7.08h-2.464l-4.496-14.888
	h2.776V65.4z"/>
<path d="M226.512,65.4l1.968,7.56c0.432,1.672,0.832,3.2,1.112,4.752h0.096c0.336-1.512,0.832-3.112,1.32-4.72l2.432-7.592h2.28
	l2.304,7.456c0.552,1.784,0.984,3.344,1.32,4.856h0.096c0.24-1.512,0.648-3.08,1.144-4.832l2.12-7.488h2.68l-4.8,14.888h-2.464
	l-2.288-7.096c-0.52-1.656-0.952-3.144-1.32-4.888h-0.064c-0.368,1.784-0.832,3.328-1.352,4.92l-2.4,7.08h-2.456l-4.496-14.888
	h2.768V65.4z"/>
<path d="M246.192,78.696c0-1.144,0.768-1.936,1.84-1.936s1.816,0.8,1.816,1.936c0,1.112-0.704,1.936-1.84,1.936
	C246.928,80.632,246.192,79.808,246.192,78.696z"/>
<g>
	<rect x="461.328" y="70.328" style="fill:#FFFFFF;" width="23" height="4"/>
	<polygon style="fill:#FFFFFF;" points="474.592,84.256 471.752,81.432 480.856,72.328 471.752,63.224 474.592,60.4 486.512,72.328 
			"/>
</g>
<polygon style="fill:#848484;" points="429.824,67.312 422.168,77.216 414.512,67.312 "/>
<path style="fill:#FFFFFF;" d="M492,119.104v328H20v-328L492,119.104 M496,115.104H16v336h480V115.104L496,115.104z"/>
<path d="M140.04,312.96c-4.832,1.736-14.4,4.584-25.696,4.584c-12.672,0-23.088-3.224-31.28-11.04
	c-7.2-6.952-11.664-18.136-11.664-31.16c0.12-24.952,17.248-43.208,45.296-43.208c9.68,0,17.248,2.12,20.864,3.856l-2.6,8.808
	c-4.48-1.984-10.072-3.592-18.512-3.592c-20.352,0-33.64,12.648-33.64,33.64c0,21.216,12.792,33.76,32.272,33.76
	c7.08,0,11.928-0.992,14.4-2.232v-24.952h-17.008v-8.704h27.552v40.24H140.04z"/>
<path style="fill:#FFFFFF;" d="M211.208,286.136c0,22.224-15.392,31.904-29.92,31.904c-16.264,0-28.792-11.912-28.792-30.912
	c0-20.104,13.144-31.904,29.776-31.904C199.544,255.224,211.208,267.768,211.208,286.136z M163.536,286.76
	c0,13.168,7.576,23.088,18.24,23.088c10.44,0,18.264-9.8,18.264-23.336c0-10.176-5.096-23.088-18.016-23.088
	C169.128,263.416,163.536,275.344,163.536,286.76z"/>
<path style="fill:#FFA624;" d="M279.4,286.136c0,22.224-15.392,31.904-29.92,31.904c-16.264,0-28.792-11.912-28.792-30.912
	c0-20.104,13.144-31.904,29.776-31.904C267.744,255.224,279.4,267.768,279.4,286.136z M231.736,286.76
	c0,13.168,7.576,23.088,18.24,23.088c10.44,0,18.264-9.8,18.264-23.336c0-10.176-5.096-23.088-18.016-23.088
	C237.32,263.416,231.736,275.344,231.736,286.76z"/>
<path d="M344.976,256.584c-0.248,4.352-0.496,9.2-0.496,16.528v34.872c0,13.784-2.744,22.224-8.568,27.424
	c-5.84,5.464-14.28,7.2-21.856,7.2c-7.2,0-15.144-1.736-19.992-4.952l2.744-8.32c3.96,2.48,10.176,4.704,17.624,4.704
	c11.168,0,19.36-5.84,19.36-20.968v-6.704h-0.248c-3.344,5.576-9.8,10.048-19.112,10.048c-14.896,0-25.568-12.672-25.568-29.304
	c0-20.352,13.272-31.904,27.056-31.904c10.424,0,16.136,5.464,18.736,10.44h0.248l0.496-9.08h9.576V256.584z M333.672,280.296
	c0-1.856-0.12-3.472-0.616-4.952c-1.984-6.336-7.328-11.552-15.272-11.552c-10.424,0-17.872,8.808-17.872,22.72
	c0,11.8,5.96,21.608,17.744,21.608c6.704,0,12.792-4.232,15.144-11.168c0.616-1.872,0.864-3.984,0.864-5.84v-10.816H333.672z"/>
<path d="M362.632,228.544h10.936v88.136h-10.936V228.544z"/>
<path style="fill:#FFFFFF;" d="M398.024,288.616c0.248,14.776,9.68,20.864,20.6,20.864c7.824,0,12.544-1.36,16.648-3.096
	l1.856,7.824c-3.856,1.736-10.424,3.712-19.992,3.712c-18.488,0-29.528-12.152-29.528-30.296c0-18.12,10.672-32.4,28.168-32.4
	c19.624,0,24.824,17.248,24.824,28.312c0,2.232-0.248,3.96-0.368,5.08L398.024,288.616L398.024,288.616z M430.048,280.792
	c0.12-6.936-2.848-17.744-15.144-17.744c-11.04,0-15.888,10.192-16.76,17.744H430.048z"/>
<g>
</g>
<g>
</g>
<g>
</g>
<g>
</g>
<g>
</g>
<g>
</g>
<g>
</g>
<g>
</g>
<g>
</g>
<g>
</g>
<g>
</g>
<g>
</g>
<g>
</g>
<g>
</g>
<g>
</g>
</svg>
