<?xml version="1.0" encoding="UTF-8" standalone="no"?>
<svg
   xmlns:dc="http://purl.org/dc/elements/1.1/"
   xmlns:cc="http://creativecommons.org/ns#"
   xmlns:rdf="http://www.w3.org/1999/02/22-rdf-syntax-ns#"
   xmlns:svg="http://www.w3.org/2000/svg"
   xmlns="http://www.w3.org/2000/svg"
   xmlns:sodipodi="http://sodipodi.sourceforge.net/DTD/sodipodi-0.dtd"
   xmlns:inkscape="http://www.inkscape.org/namespaces/inkscape"
   width="1000"
   height="1000"
   id="svg2"
   version="1.1"
   inkscape:version="0.91 r13725"
   sodipodi:docname="cloud_balloon.svg">
  <metadata
     id="metadata39">
    <rdf:RDF>
      <cc:Work
         rdf:about="">
        <dc:format>image/svg+xml</dc:format>
        <dc:type
           rdf:resource="http://purl.org/dc/dcmitype/StillImage" />
        <dc:title></dc:title>
      </cc:Work>
    </rdf:RDF>
  </metadata>
  <defs
     id="defs37" />
  <sodipodi:namedview
     pagecolor="#ffffff"
     bordercolor="#666666"
     borderopacity="1"
     objecttolerance="10"
     gridtolerance="10"
     guidetolerance="10"
     inkscape:pageopacity="0"
     inkscape:pageshadow="2"
     inkscape:window-width="1215"
     inkscape:window-height="1000"
     id="namedview35"
     showgrid="false"
     inkscape:zoom="0.236"
     inkscape:cx="500"
     inkscape:cy="500"
     inkscape:window-x="65"
     inkscape:window-y="24"
     inkscape:window-maximized="1"
     inkscape:current-layer="svg2" />
  <!-- Created with SVG-edit - http://svg-edit.googlecode.com/ -->
  <g
     id="g4">
    <title
       id="title6">Layer 1</title>
    <g
       id="svg_55"
       style="opacity:0.65">
      <g
         id="svg_56"
         style="fill:#FFFFFF000">
        <path
           id="svg_57"
           d="m 762.66162,461.30762 c -21.99353,1.20074 -42.02789,13.30987 -53.42914,32.30774 -0.59405,0.9859 -1.09967,1.87066 -1.12494,1.9591 -0.0379,0.10114 -0.32861,-0.0632 -0.80896,-0.48028 -2.1867,-1.896 -6.47168,-4.8664 -9.53051,-6.61072 -7.21741,-4.13324 -15.59766,-7.01514 -23.90217,-8.22852 -3.65289,-0.53094 -6.20617,-0.66998 -10.85766,-0.59411 -4.63886,0.0759 -6.80029,0.26544 -10.46588,0.91003 -14.30841,2.54065 -26.89777,9.2525 -37.0603,19.74365 l -2.18677,2.26251 -1.8454,-1.06176 c -28.27558,-16.17914 -63.25031,-17.026 -92.34741,-2.22455 -6.9773,3.53912 -13.15821,7.685 -19.38971,12.96856 -2.40161,2.03498 -8.26648,7.8747 -10.26361,10.21302 -8.20331,9.59375 -14.11884,19.78161 -18.25208,31.41028 -2.50274,7.06573 -4.29761,15.16796 -5.04333,22.75189 -0.69519,7.04046 -0.58148,14.94037 0.30334,21.99347 4.0448,32.04236 23.97797,60.17877 52.96137,74.75268 11.30011,5.68799 22.60022,8.87323 35.77105,10.08667 3.43805,0.31604 12.65253,0.31604 16.05268,0 11.05999,-1.02386 20.65368,-3.41278 30.33593,-7.54608 4.92957,-2.0982 10.8324,-5.27081 14.86451,-7.97577 0.72052,-0.48034 1.35254,-0.87219 1.40307,-0.87219 0.0505,0 0.40448,0.84692 0.78369,1.87079 5.39722,14.776 16.9881,28.08587 32.58576,37.41418 23.82629,14.25788 54.88263,18.01191 82.98126,10.01087 12.82953,-3.64032 24.82489,-9.85913 34.35535,-17.80969 1.89599,-1.58002 6.06714,-5.42261 6.06714,-5.58692 0,-0.24011 0.2655,-0.0758 1.3399,0.79639 15.25641,12.32391 33.59699,19.79413 53.32788,21.71539 5.44782,0.51831 13.25934,0.51831 18.70709,0 21.70289,-2.1109 41.56019,-10.87036 57.67615,-25.44421 3.42542,-3.0968 7.92523,-7.8747 10.85767,-11.52765 2.41424,-3.0083 5.29614,-7.10364 7.23004,-10.26361 0.68256,-1.11231 0.83423,-1.28925 1.06177,-1.23871 0.15167,0.0379 1.04913,0.1391 1.98443,0.25281 17.39258,1.89599 34.77259,-2.28784 49.28321,-11.8689 18.47961,-12.2102 30.55066,-31.87799 33.05336,-53.85882 0.6953,-6.02924 0.5815,-13.05707 -0.3159,-19.21277 -4.0448,-27.95954 -23.94022,-51.45716 -50.92637,-60.15345 -4.95489,-1.60534 -10.81976,-2.79345 -15.79999,-3.23577 -0.87207,-0.0759 -1.80743,-0.16437 -2.09814,-0.20228 l -0.51825,-0.0632 -0.87213,-2.04767 c -1.0871,-2.57855 -3.21057,-6.78765 -4.66419,-9.25238 -9.17663,-15.62304 -22.97943,-27.79528 -39.49987,-34.86102 -8.00104,-3.41272 -15.78724,-5.39722 -25.09021,-6.37054 -3.09681,-0.32862 -12.31134,-0.32862 -15.48401,0 -14.06818,1.4284 -26.77137,5.87762 -38.09674,13.30987 -1.09967,0.7331 -2.03504,1.33985 -2.09821,1.35248 -0.0505,0.0126 -0.93543,-0.74579 -1.9718,-1.69373 -2.36371,-2.16143 -3.32434,-2.97039 -5.54901,-4.63885 -12.46296,-9.36627 -27.84577,-14.0177 -43.49396,-13.1582 z"
           inkscape:connector-curvature="0"
           style="fill:#8f8f8f" />
      </g>
    </g>
    <metadata
       transform="matrix(0.15668003877763678,0,0,0.15668003877763678,-18.172237302525886,-123.84060071838758) "
       id="metadata11">Created by potrace 1.12, written by Peter Selinger 2001-2015</metadata>
    <g
       id="svg_26"
       style="opacity:0.7;fill:#FFFFFF000">
      <path
         id="svg_27"
         d="m 434.85812,5.433113 c -9.27105,0.79855 -16.01004,2.025589 -23.76178,4.304382 -13.90646,4.090137 -27.07284,11.140762 -38.42788,20.567558 -9.27097,7.693359 -17.47074,17.237015 -23.70331,27.598709 -0.6622,1.129646 -1.24652,2.064537 -1.26602,2.103485 -0.0195,0.01949 -1.55811,-0.214249 -3.42792,-0.525871 -18.63934,-3.174728 -37.97986,-2.415123 -56.56073,2.259315 -30.6955,7.693367 -57.82678,25.904221 -76.9725,51.672089 -5.88202,7.90761 -11.80301,18.21085 -15.71781,27.36499 -0.7012,1.59709 -1.32449,2.90204 -1.42184,2.90204 -0.0779,-0.0195 -1.86975,-0.15582 -3.97327,-0.27268 -5.25876,-0.35058 -15.46463,-0.15582 -20.23645,0.37006 -16.65277,1.79187 -31.59147,6.34946 -45.77063,13.94544 l -3.01892,1.61656 -2.04506,-0.46743 c -6.31051,-1.44128 -11.70561,-2.04508 -19.223647,-2.16194 -7.810242,-0.13633 -12.328873,0.19477 -19.145752,1.42182 -22.826874,4.1096 -43.667091,16.4774 -58.333191,34.62983 -12.231461,15.15302 -19.496323,33.24701 -21.229744,52.8407 -0.331123,3.77854 -0.389549,11.90036 -0.097397,15.56204 2.122994,27.05332 15.094552,51.65259 36.129555,68.539 15.211426,12.19254 33.227539,19.37949 52.977051,21.11295 l 1.947678,0.17526 3.408447,3.36948 c 9.5826,9.48526 19.67163,16.73065 31.55252,22.69055 33.26642,16.63324 72.33704,17.43179 106.18771,2.14246 1.305,-0.60382 2.47367,-1.0907 2.59052,-1.0907 0.0973,0.0195 0.95432,1.05176 1.88928,2.29825 3.73957,5.00555 8.14127,9.97217 13.41944,15.13351 23.7034,23.2164 54.43786,36.79178 88.01599,38.87583 4.65494,0.29214 15.91253,0.11685 20.3533,-0.31165 22.24252,-2.12296 42.30371,-8.93985 61.11832,-20.72336 8.35562,-5.23929 16.10739,-11.47186 23.80075,-19.18469 9.01779,-9.03726 16.10739,-18.24982 22.10629,-28.80627 0.77905,-1.36341 1.49963,-2.45411 1.57764,-2.43461 0.0973,0.039 1.42169,1.03223 2.94091,2.22034 4.77186,3.72006 11.23816,8.25821 15.75678,11.0434 1.4024,0.87646 1.51916,0.99331 1.71393,1.85028 0.50635,2.04507 2.06463,6.73901 3.27215,9.7774 9.40735,23.89811 28.41681,43.04383 52.159,52.5485 7.71277,3.07736 15.71777,5.10299 24.63825,6.21316 4.05108,0.50641 16.36059,0.50641 20.45068,0 19.14569,-2.33725 35.17517,-9.21258 49.86066,-21.32715 2.86316,-2.37619 9.32953,-8.823 11.72516,-11.72507 4.84979,-5.86251 8.45294,-11.35504 11.7055,-17.91873 0.99341,-1.9866 1.79199,-3.62268 1.8114,-3.66162 0.0194,-0.0195 1.14917,0.72061 2.53198,1.63605 7.4986,5.02499 17.19812,10.05005 25.88477,13.4585 13.14685,5.14187 27.30658,8.27764 41.68042,9.21255 3.91492,0.25317 13.30273,0.25317 17.13971,0 37.3371,-2.4541 71.61639,-19.55478 95.88446,-47.89358 19.37945,-22.59314 30.69556,-50.42554 32.76013,-80.65363 0.25324,-3.70062 0.25324,-13.78961 0,-17.56815 -2.1814,-31.98098 -14.89978,-61.46893 -36.5581,-84.78273 -19.69111,-21.19082 -45.26416,-35.5063 -73.50562,-41.15458 l -4.57703,-0.91542 -0.54541,-1.36336 C 758.32965,127.12448 749.19507,111.32876 738.87226,97.928678 733.67188,91.170209 729.40662,86.378904 722.35596,79.30882 712.67591,69.648298 704.49567,62.909307 693.51075,55.586004 677.79291,45.107458 661.12079,37.238813 642.90985,31.726858 615.17481,23.332342 584.84937,21.384657 556.29633,26.175955 c -12.42627,2.084023 -23.06061,4.947121 -36.24652,9.738434 l -1.79181,0.642738 -2.08398,-1.986649 C 510.85688,29.487028 504.33204,24.598333 497.28138,20.352384 493.85346,18.30731 486.10169,14.470373 482.3816,12.990129 473.05219,9.309003 463.58637,6.971784 453.16626,5.783693 450.49796,5.491541 437.2537,5.23834 434.85813,5.433111 Z"
         inkscape:connector-curvature="0"
         style="fill:#595959" />
    </g>
    <metadata
       transform="matrix(0.2500000298023224,0,0,0.2500000298023224,1.9999999999999716,1.9999999999999716) "
       id="svg_42">image/svg+xml</metadata>
    <defs
       transform="matrix(0.2500000298023224,0,0,0.2500000298023224,1.9999999999999716,1.9999999999999716) "
       id="defs16">
      <clipPath
         clipPathUnits="userSpaceOnUse"
         id="svg_32">
        <path
           d="m 141,1189 1000,0 0,-1000 -1000,0 0,1000 z"
           id="svg_41"
           inkscape:connector-curvature="0" />
      </clipPath>
    </defs>
    <g
       id="svg_45">
      <g
         id="svg_46">
        <g
           id="svg_39">
          <path
             d="m 499.96258,176.63531 c -170.45504,0 -308.62591,138.20017 -308.62591,308.65513 0,88.07431 36.8988,167.55618 96.10477,223.79501 l 212.58615,212.56653 -0.065,-745.01667 z"
             id="svg_40"
             inkscape:connector-curvature="0"
             style="fill:#f9b200;fill-rule:nonzero" />
        </g>
        <g
           id="svg_37">
          <path
             d="m 500.02429,176.63531 c 170.45178,0 308.63904,138.20017 308.63904,308.65513 0,88.07431 -36.91199,167.55618 -96.10797,223.79501 l -212.59607,212.56653 0.065,-745.01667 z"
             id="svg_38"
             inkscape:connector-curvature="0"
             style="fill:#f0801b;fill-rule:nonzero" />
        </g>
        <g
           id="svg_35">
          <path
             d="m 467.35678,967.36468 32.72928,-32.72625 32.72931,32.72625 -65.45859,0 z"
             id="svg_36"
             inkscape:connector-curvature="0"
             style="fill:#f0801b;fill-rule:nonzero" />
        </g>
        <g
           id="svg_33">
          <path
             d="M 462.84268,222.72485 C 333.53091,240.534 233.94226,351.44186 233.94226,485.63828 c 0,53.18698 15.63178,102.67599 42.55686,144.21237 -9.20685,-30.81513 -14.16938,-63.48596 -14.16938,-97.29749 0,-137.97915 82.31891,-256.71258 200.51294,-309.8283"
             id="svg_34"
             inkscape:connector-curvature="0"
             style="fill:#ffe900;fill-rule:nonzero" />
        </g>
      </g>
    </g>
    <metadata
       transform="matrix(0.0671907514333725,0,0,0.0671907514333725,0.9999999787014957,1.9999999574029914) "
       id="metadata30">Created by potrace 1.12, written by Peter Selinger 2001-2015</metadata>
    <g
       id="svg_52"
       style="opacity:0.9">
      <g
         id="svg_53"
         style="fill:#FFFFFF000">
        <path
           id="svg_54"
           d="m 265.45053,672.21448 c -19.60989,1.07062 -37.47288,11.86737 -47.63843,28.80621 -0.52969,0.87903 -0.9805,1.66791 -1.00303,1.74677 -0.0338,0.0902 -0.29303,-0.0563 -0.72129,-0.42829 -1.9497,-1.69043 -5.77024,-4.33893 -8.49759,-5.89422 -6.43516,-3.68525 -13.90719,-6.25477 -21.31161,-7.33667 -3.257,-0.47345 -5.53357,-0.59742 -9.68095,-0.52973 -4.1361,0.0676 -6.06324,0.2367 -9.33156,0.8114 -12.75763,2.26526 -23.98258,8.2497 -33.04367,17.60382 l -1.94974,2.01728 -1.64542,-0.94672 c -25.21103,-14.4256 -56.395177,-15.18066 -82.338757,-1.9834 -6.22105,3.15552 -11.732082,6.85205 -17.288214,11.56305 -2.141302,1.81439 -7.370579,7.02118 -9.151247,9.10608 -7.314241,8.55396 -12.588613,17.6377 -16.273908,28.00604 -2.231465,6.29993 -3.831808,13.52399 -4.496736,20.28595 -0.619851,6.27747 -0.518426,13.32117 0.270484,19.6098 3.606398,28.56965 21.379223,53.65662 47.221364,66.65094 10.075401,5.07154 20.150799,7.91163 31.894154,8.99353 3.065445,0.2818 11.281288,0.2818 14.312927,0 9.861263,-0.9129 18.415213,-3.0429 27.048053,-6.72821 4.39529,-1.87085 9.65839,-4.69958 13.25353,-7.11138 0.64239,-0.42829 1.20589,-0.77765 1.25099,-0.77765 0.0451,0 0.36061,0.75506 0.69872,1.66797 4.81231,13.17462 15.14691,25.04193 29.0541,33.35925 21.24399,12.71258 48.93442,16.05975 73.9877,8.92584 11.43906,-3.24579 22.13431,-8.79053 30.6319,-15.87939 1.69049,-1.40876 5.40958,-4.83497 5.40958,-4.98139 0,-0.21411 0.23672,-0.0676 1.19464,0.71002 13.60296,10.98822 29.95572,17.64881 47.54822,19.36188 4.85736,0.4621 11.82223,0.4621 16.67959,0 19.35065,-1.88208 37.05582,-9.6922 51.42514,-22.68652 3.05417,-2.76123 7.06626,-7.02124 9.68094,-10.27832 2.15256,-2.68225 4.72211,-6.33368 6.44641,-9.15125 0.60862,-0.99176 0.74381,-1.14947 0.94669,-1.10443 0.13525,0.0337 0.93539,0.12402 1.76941,0.2254 15.5075,1.6905 31.00387,-2.03985 43.94183,-10.58258 16.47672,-10.88678 27.23953,-28.42297 29.47107,-48.02148 0.61981,-5.37585 0.5184,-11.64197 -0.28177,-17.13055 -3.60641,-24.9292 -21.34549,-45.88013 -45.40689,-53.63392 -4.41788,-1.43139 -9.64709,-2.49072 -14.08752,-2.88513 -0.77759,-0.0676 -1.61161,-0.14648 -1.87082,-0.1803 l -0.46204,-0.0564 -0.77765,-1.82575 c -0.96927,-2.29913 -2.86258,-6.052 -4.15863,-8.24957 -8.18207,-13.92987 -20.48895,-24.78284 -35.21884,-31.08276 -7.13391,-3.04291 -14.07623,-4.81226 -22.37097,-5.68012 -2.76114,-0.29303 -10.97699,-0.29303 -13.80579,0 -12.54352,1.27356 -23.86987,5.2406 -33.9678,11.86731 -0.9805,0.65363 -1.81455,1.19464 -1.87085,1.20593 -0.0451,0.0113 -0.83399,-0.66497 -1.75809,-1.51019 -2.10754,-1.92712 -2.96402,-2.64844 -4.94757,-4.13605 -11.11227,-8.35119 -24.82782,-12.49847 -38.78006,-11.73211 z"
           inkscape:connector-curvature="0"
           style="fill:#d8d8d8" />
      </g>
    </g>
  </g>
</svg>
