<svg xmlns:dc="http://purl.org/dc/elements/1.1/" xmlns:cc="http://creativecommons.org/ns#" xmlns:rdf="http://www.w3.org/1999/02/22-rdf-syntax-ns#" xmlns="http://www.w3.org/2000/svg" viewBox="0 0 1333.333251953125 1333.333251953125" height="100%" width="100%" xml:space="preserve" id="svg2" version="1.1" xmlns:xlink="http://www.w3.org/1999/xlink" ><rect id="svgEditorBackground" x="0" y="0" width="1333.33" height="1333.33" style="stroke: none; fill: none;"/><metadata id="metadata8"><rdf:RDF><cc:Work rdf:about=""><dc:format>image/svg+xml</dc:format><dc:type rdf:resource="http://purl.org/dc/dcmitype/StillImage"/></cc:Work></rdf:RDF></metadata><defs id="defs6"><clipPath id="clipPath20" clipPathUnits="userSpaceOnUse"><path id="path18" d="M 0,1000 H 1000 V 0 H 0 Z"/></clipPath></defs><g transform="matrix(3.03479, 0, 0, -3.03479, 106.199, 3020.63)" id="g10"><g id="g14" transform="matrix(1.7994, 0, 0, 1.7994, -585.664, 65.6946)"><g clip-path="url(#clipPath20)" id="g16"><g transform="matrix(1, 0, 0, 1, 425.448, 512.417)" id="g70"><path id="path72" style="fill:#f9b200;fill-opacity:1;fill-rule:nonzero;stroke:none" d="M0,0c-52.45000076293945,0,-94.96600341796875,-42.525001525878906,-94.96600341796875,-94.9749984741211c0,-27.100997924804688,11.35400390625,-51.55799102783203,29.571998596191406,-68.86299896240234l65.41400146484375,-65.40800476074219Z"/></g><g transform="matrix(1, 0, 0, 1, 425.467, 512.417)" id="g74"><path id="path76" style="fill:#f0801b;fill-opacity:1;fill-rule:nonzero;stroke:none" d="M0,0c52.44900131225586,0,94.97000122070312,-42.525001525878906,94.97000122070312,-94.9749984741211c0,-27.100997924804688,-11.358001708984375,-51.55799102783203,-29.572998046875,-68.86299896240234l-65.41699981689453,-65.40800476074219Z"/></g><g transform="matrix(1, 0, 0, 1, 415.415, 269.105)" id="g78"><path id="path80" style="fill:#f0801b;fill-opacity:1;fill-rule:nonzero;stroke:none" d="M 0,0 10.071,10.07 20.142,0 Z"/></g><g transform="matrix(1, 0, 0, 1, 414.026, 498.235)" id="g82"><path id="path84" style="fill:#ffe900;fill-opacity:1;fill-rule:nonzero;stroke:none" d="m 0,0 c -39.79,-5.48 -70.434,-39.607 -70.434,-80.9 0,-16.366 4.81,-31.594 13.095,-44.375 -2.833,9.482 -4.36,19.535 -4.36,29.939 0,42.457 25.33,78.992 61.699,95.336"/></g></g></g></g></svg>