<svg width="1000" height="1000" viewBox="0 0 1000 1000" xmlns="http://www.w3.org/2000/svg">
  <g id="svg_2" fill="#FFFFFF000" transform="translate(0,1000) scale(0.10000000149011612,-0.10000000149011612) ">
   <path fill="#FFFFFF" id="svg_3" d="m4770,8994c-19,-2 -91,-9 -159,-14c-480,-42 -1034,-206 -1461,-432c-371,-197 -676,-423 -976,-722c-652,-653 -1036,-1448 -1151,-2386c-24,-204 -24,-676 0,-880c97,-789 377,-1460 863,-2070c137,-172 430,-464 604,-604c620,-495 1318,-781 2120,-868c149,-16 631,-16 780,0c601,65 1150,245 1640,535c238,141 518,351 700,525l95,91l-529,529l-529,530l-92,-83c-625,-564 -1478,-773 -2306,-565c-208,53 -476,167 -669,284c-325,199 -637,511 -836,836c-436,716 -482,1621 -120,2375c128,267 278,477 491,690c390,391 867,630 1420,712c167,24 523,24 690,0c421,-63 810,-222 1141,-468c114,-84 274,-226 274,-242c0,-7 -226,-238 -502,-514l-503,-503l1272,0c890,0 1288,3 1325,11c187,39 348,200 387,387c8,37 11,435 11,1325l0,1272l-459,-459l-459,-459l-109,101c-632,590 -1439,957 -2318,1052c-101,11 -571,22 -635,14z"/>
  </g>
</svg>