<?xml version="1.0" encoding="iso-8859-1"?>
<!-- Generator: Adobe Illustrator 18.0.0, SVG Export Plug-In . SVG Version: 6.00 Build 0)  -->
<!DOCTYPE svg PUBLIC "-//W3C//DTD SVG 1.1//EN" "http://www.w3.org/Graphics/SVG/1.1/DTD/svg11.dtd">
<svg version="1.1" id="Capa_1" xmlns="http://www.w3.org/2000/svg" xmlns:xlink="http://www.w3.org/1999/xlink" x="0px" y="0px"
	 viewBox="0 0 473.083 473.083" style="enable-background:new 0 0 473.083 473.083;" xml:space="preserve">
<g>
	<path style="fill:#020202;" d="M330.406,213.107c-1.407-0.588-3.041-0.263-4.115,0.821l-15.018,15.024l-32.595-32.588
		c-6.189-6.191-16.216-6.191-22.407,0c-6.189,6.189-6.189,16.216,0,22.405l32.597,32.589L273.833,266.4
		c-1.082,1.083-1.4,2.708-0.819,4.116c0.588,1.407,1.965,2.336,3.497,2.336h52.456c1.006,0,1.965-0.403,2.678-1.114
		c0.704-0.695,1.106-1.672,1.106-2.662l-0.008-52.472C332.744,215.072,331.823,213.695,330.406,213.107z"/>
	<path style="fill:#020202;" d="M194.793,196.365l-32.595,32.588l-15.017-15.024c-1.076-1.084-2.708-1.409-4.117-0.821
		c-1.416,0.588-2.336,1.965-2.336,3.497l-0.008,52.472c0,0.99,0.402,1.967,1.107,2.662c0.711,0.711,1.67,1.114,2.676,1.114h52.458
		c1.53,0,2.909-0.929,3.497-2.336c0.58-1.408,0.263-3.033-0.821-4.116l-15.033-15.041L217.2,218.77
		c6.189-6.189,6.189-16.216,0-22.405C211.01,190.174,200.983,190.174,194.793,196.365z"/>
	<path style="fill:#020202;" d="M267.126,153.995c4.053,0,8.108-1.546,11.203-4.641l32.595-32.589l15.019,15.026
		c1.076,1.082,2.708,1.406,4.116,0.818c1.415-0.588,2.336-1.964,2.336-3.497l0.008-52.472c0-0.99-0.402-1.965-1.106-2.661
		c-0.711-0.712-1.672-1.114-2.678-1.114h-52.456c-1.532,0-2.909,0.929-3.497,2.337c-0.58,1.409-0.263,3.033,0.821,4.117
		l15.032,15.04l-32.595,32.587c-6.191,6.189-6.191,16.217,0,22.407C259.019,152.449,263.072,153.995,267.126,153.995z"/>
	<path style="fill:#020202;" d="M142.715,132.611c1.409,0.588,3.041,0.264,4.117-0.818l15.017-15.026l32.597,32.589
		c3.095,3.095,7.148,4.641,11.203,4.641c4.055,0,8.108-1.546,11.203-4.641c6.19-6.19,6.19-16.218,0-22.407l-32.596-32.587
		l15.033-15.04c1.084-1.084,1.401-2.708,0.821-4.117c-0.588-1.408-1.965-2.337-3.497-2.337h-52.458
		c-1.004,0-1.965,0.402-2.676,1.114c-0.704,0.696-1.106,1.671-1.106,2.661l0.008,52.472
		C140.379,130.647,141.3,132.023,142.715,132.611z"/>
	<path style="fill:#020202;" d="M434.431,13.91H38.654C17.338,13.91,0,31.256,0,52.566V321.16c0,21.309,17.338,38.654,38.654,38.654
		h132.682v51.822h-20.937c-13.13,0-23.768,10.646-23.768,23.769c0,13.121,10.638,23.768,23.768,23.768h172.317
		c13.13,0,23.768-10.646,23.768-23.768c0-13.122-10.638-23.769-23.768-23.769H301.78v-51.822h132.65
		c21.315,0,38.653-17.346,38.653-38.654V52.566C473.083,31.256,455.746,13.91,434.431,13.91z M377.974,336.047
		c-5.958,0-10.77-4.813-10.77-10.754c0-5.958,4.813-10.771,10.77-10.771c5.942,0,10.754,4.813,10.754,10.771
		C388.728,331.235,383.916,336.047,377.974,336.047z M425.51,338.631c-7.381,0-13.354-5.973-13.354-13.338
		c0-7.381,5.974-13.355,13.354-13.355c7.365,0,13.338,5.974,13.338,13.355C438.848,332.658,432.875,338.631,425.51,338.631z
		 M441.393,298.46H31.69V52.566c0-3.838,3.126-6.964,6.963-6.964h395.777c3.838,0,6.962,3.126,6.962,6.964V298.46z"/>
</g>
<g>
</g>
<g>
</g>
<g>
</g>
<g>
</g>
<g>
</g>
<g>
</g>
<g>
</g>
<g>
</g>
<g>
</g>
<g>
</g>
<g>
</g>
<g>
</g>
<g>
</g>
<g>
</g>
<g>
</g>
</svg>
