<?xml version="1.0" encoding="UTF-8" standalone="no"?>
<svg
   xmlns:dc="http://purl.org/dc/elements/1.1/"
   xmlns:cc="http://creativecommons.org/ns#"
   xmlns:rdf="http://www.w3.org/1999/02/22-rdf-syntax-ns#"
   xmlns:svg="http://www.w3.org/2000/svg"
   xmlns="http://www.w3.org/2000/svg"
   xmlns:sodipodi="http://sodipodi.sourceforge.net/DTD/sodipodi-0.dtd"
   xmlns:inkscape="http://www.inkscape.org/namespaces/inkscape"
   version="1.0"
   width="1000.000000pt"
   height="1000.000000pt"
   viewBox="0 0 1000.000000 1000.000000"
   preserveAspectRatio="xMidYMid meet"
   id="svg3386"
   inkscape:version="0.91 r13725"
   sodipodi:docname="search1.svg">
  <defs
     id="defs3396" />
  <sodipodi:namedview
     pagecolor="#ffffff"
     bordercolor="#666666"
     borderopacity="1"
     objecttolerance="10"
     gridtolerance="10"
     guidetolerance="10"
     inkscape:pageopacity="0"
     inkscape:pageshadow="2"
     inkscape:window-width="2495"
     inkscape:window-height="1416"
     id="namedview3394"
     showgrid="false"
     inkscape:zoom="0.6856"
     inkscape:cx="409.13069"
     inkscape:cy="625"
     inkscape:window-x="2625"
     inkscape:window-y="24"
     inkscape:window-maximized="1"
     inkscape:current-layer="svg3386" />
  <metadata
     id="metadata3388">
Created by potrace 1.13, written by Peter Selinger 2001-2015
<rdf:RDF>
  <cc:Work
     rdf:about="">
    <dc:format>image/svg+xml</dc:format>
    <dc:type
       rdf:resource="http://purl.org/dc/dcmitype/StillImage" />
    <dc:title></dc:title>
  </cc:Work>
</rdf:RDF>
</metadata>
  <g
     transform="translate(0.000000,1000.000000) scale(0.100000,-0.100000)"
     fill="#FFFFFF000"
     stroke="none"
     id="g3390"
     style="fill:#999999;fill-opacity:1">
    <path
       d="M3860 8990 c-628 -61 -1198 -288 -1680 -670 -135 -107 -393 -365 -500 -500 -355 -447 -577 -973 -656 -1555 -25 -182 -25 -598 0 -780 79 -582 301 -1108 656 -1555 107 -135 365 -393 500 -500 447 -355 973 -577 1555 -656 182 -25 598 -25 780 0 477 65 928 230 1304 476 l124 82 1146 -1145 c630 -630 1162 -1153 1181 -1163 51 -27 162 -25 215 3 49 27 466 445 491 493 25 48 25 162 0 210 -10 19 -533 551 -1163 1181 l-1145 1146 82 124 c153 234 304 566 380 836 85 304 114 519 114 858 0 194 -5 293 -18 390 -51 374 -144 679 -307 1005 -158 316 -330 554 -588 811 -257 258 -495 430 -811 588 -324 162 -633 257 -1000 306 -138 19 -527 27 -660 15z m471 -1000 c497 -51 941 -261 1294 -615 629 -628 800 -1559 436 -2375 -171 -384 -484 -733 -856 -955 -379 -225 -846 -329 -1286 -285 -498 51 -941 261 -1294 615 -628 627 -798 1549 -439 2369 97 222 251 444 439 631 133 134 261 234 421 330 374 225 845 329 1285 285z"
       id="path3392"
       style="fill:#999999;fill-opacity:1" />
  </g>
</svg>
